# Blender 4.4.1
# www.blender.org
mtllib skydome.mtl
o Skydome
v 0.000000 374.161285 -250.006714
v 0.000000 250.006577 -374.161469
v 0.000000 87.790619 -441.353516
v 0.000000 -0.000034 -450.000153
v 0.000000 -87.790680 -441.353516
v 0.000000 -250.006638 -374.161407
v 17.127115 441.353363 -86.103836
v 33.596050 415.745789 -168.898727
v 48.773907 374.161285 -245.202911
v 62.077404 318.198029 -312.084076
v 72.995300 250.006577 -366.972076
v 81.108025 172.207520 -407.757446
v 86.103828 87.790619 -432.873016
v 87.790703 -0.000033 -441.353516
v 86.103828 -87.790680 -432.873016
v 81.108025 -172.207581 -407.757446
v 72.995300 -250.006638 -366.972015
v 62.077404 -318.198090 -312.084015
v 48.773907 -374.161346 -245.202850
v 33.596050 -415.745789 -168.898666
v 17.127115 -441.353363 -86.103775
v 33.596046 441.353363 -81.108032
v 65.901024 415.745789 -159.099121
v 95.673454 374.161285 -230.976074
v 121.769203 318.198029 -293.976776
v 143.185425 250.006577 -345.680084
v 159.099121 172.207520 -384.099152
v 168.898743 87.790619 -407.757446
v 172.207657 -0.000031 -415.745911
v 168.898743 -87.790680 -407.757446
v 159.099121 -172.207581 -384.099152
v 143.185425 -250.006638 -345.680023
v 121.769203 -318.198090 -293.976715
v 95.673454 -374.161346 -230.976013
v 65.901024 -415.745789 -159.099060
v 33.596046 -441.353363 -81.107971
v 48.773899 441.353363 -72.995300
v 95.673454 415.745789 -143.185425
v 138.896317 374.161285 -207.872971
v 176.781479 318.198029 -264.572144
v 207.873001 250.006577 -311.103851
v 230.976105 172.207520 -345.680084
v 245.202957 87.790619 -366.972046
v 250.006790 -0.000028 -374.161407
v 245.202957 -87.790680 -366.972046
v 230.976105 -172.207581 -345.680084
v 207.873001 -250.006638 -311.103790
v 176.781479 -318.198090 -264.572083
v 138.896317 -374.161346 -207.872910
v 95.673454 -415.745789 -143.185364
v 48.773899 -441.353363 -72.995239
v 62.077400 441.353363 -62.077400
v 121.769203 415.745789 -121.769180
v 176.781464 374.161316 -176.781418
v 225.000153 318.198029 -225.000107
v 264.572144 250.006592 -264.572083
v 293.976837 172.207535 -293.976746
v 312.084167 87.790627 -312.084045
v 318.198242 -0.000024 -318.198059
v 312.084167 -87.790672 -312.084045
v 293.976837 -172.207565 -293.976746
v 264.572144 -250.006622 -264.572021
v 225.000153 -318.198090 -225.000046
v 176.781464 -374.161316 -176.781357
v 121.769203 -415.745789 -121.769119
v 62.077400 -441.353363 -62.077332
v 72.995293 441.353363 -48.773911
v 143.185440 415.745789 -95.673439
v 207.873016 374.161316 -138.896286
v 264.572174 318.198059 -176.781464
v 311.103943 250.006592 -207.872925
v 345.680176 172.207535 -230.976089
v 366.972137 87.790634 -245.202820
v 374.161530 -0.000019 -250.006577
v 366.972137 -87.790665 -245.202820
v 345.680176 -172.207565 -230.976059
v 311.103943 -250.006622 -207.872894
v 264.572174 -318.198059 -176.781403
v 207.873016 -374.161316 -138.896225
v 143.185440 -415.745789 -95.673378
v 72.995293 -441.353363 -48.773842
v 0.000000 450.000000 -0.000034
v 81.108017 441.353363 -33.596062
v 159.099121 415.745789 -65.901024
v 230.976105 374.161316 -95.673424
v 293.976868 318.198059 -121.769188
v 345.680176 250.006592 -143.185349
v 384.099243 172.207535 -159.099106
v 407.757568 87.790634 -168.898636
v 415.746002 -0.000013 -172.207520
v 407.757568 -87.790665 -168.898636
v 384.099243 -172.207565 -159.099075
v 345.680176 -250.006622 -143.185318
v 293.976868 -318.198059 -121.769142
v 230.976105 -374.161316 -95.673363
v 159.099121 -415.745789 -65.900963
v 81.108017 -441.353363 -33.595993
v 86.103813 441.353363 -17.127136
v 168.898727 415.745789 -33.596058
v 245.202927 374.161316 -48.773884
v 312.084167 318.198059 -62.077412
v 366.972076 250.006607 -72.995247
v 407.757568 172.207550 -81.108040
v 432.873138 87.790642 -86.103767
v 441.353577 -0.000007 -87.790588
v 432.873138 -87.790657 -86.103752
v 407.757568 -172.207550 -81.108009
v 366.972076 -250.006607 -72.995216
v 312.084167 -318.198059 -62.077366
v 245.202927 -374.161316 -48.773830
v 168.898727 -415.745789 -33.595997
v 86.103813 -441.353363 -17.127071
v 87.790680 441.353363 -0.000028
v 172.207642 415.745789 -0.000021
v 250.006729 374.161316 -0.000005
v 318.198242 318.198059 -0.000031
v 374.161469 250.006607 0.000022
v 415.746033 172.207550 -0.000032
v 441.353607 87.790649 0.000034
v 450.000153 0.000000 0.000074
v 441.353607 -87.790649 0.000047
v 415.746033 -172.207550 -0.000006
v 374.161469 -250.006607 0.000059
v 318.198242 -318.198059 0.000017
v 250.006729 -374.161316 0.000051
v 172.207642 -415.745789 0.000042
v 87.790680 -441.353363 0.000039
v 86.103806 441.353363 17.127079
v 168.898727 415.745789 33.596016
v 245.202896 374.161316 48.773872
v 312.084137 318.198059 62.077343
v 366.972046 250.006607 72.995293
v 407.757568 172.207550 81.107964
v 432.873108 87.790657 86.103821
v 441.353485 0.000007 87.790726
v 432.873108 -87.790642 86.103836
v 407.757568 -172.207550 81.107994
v 366.972046 -250.006607 72.995323
v 312.084137 -318.198059 62.077389
v 245.202896 -374.161316 48.773926
v 168.898727 -415.745789 33.596077
v 86.103806 -441.353363 17.127144
v 81.108002 441.353363 33.595997
v 159.099121 415.745789 65.900970
v 230.976059 374.161316 95.673393
v 293.976837 318.198059 121.769112
v 345.680115 250.006622 143.185379
v 384.099243 172.207565 159.099014
v 407.757507 87.790665 168.898697
v 415.745850 0.000013 172.207626
v 407.757507 -87.790634 168.898697
v 384.099243 -172.207535 159.099045
v 345.680115 -250.006592 143.185410
v 293.976837 -318.198059 121.769157
v 230.976059 -374.161316 95.673454
v 159.099121 -415.745789 65.901031
v 81.108002 -441.353363 33.596066
v 72.995262 441.353363 48.773834
v 143.185410 415.745789 95.673386
v 207.872940 374.161316 138.896225
v 264.572144 318.198059 176.781372
v 311.103851 250.006622 207.872925
v 345.680176 172.207565 230.975998
v 366.972046 87.790665 245.202850
v 374.161346 0.000019 250.006668
v 366.972046 -87.790634 245.202850
v 345.680176 -172.207535 230.976028
v 311.103851 -250.006592 207.872955
v 264.572144 -318.198059 176.781433
v 207.872940 -374.161316 138.896286
v 143.185410 -415.745789 95.673447
v 72.995262 -441.353363 48.773903
v 62.077370 441.353363 62.077320
v 121.769157 415.745789 121.769119
v 176.781387 374.161316 176.781372
v 225.000122 318.198090 225.000031
v 264.572083 250.006622 264.572021
v 293.976837 172.207565 293.976715
v 312.084076 87.790672 312.084045
v 318.198029 0.000024 318.198090
v 312.084076 -87.790627 312.084045
v 293.976837 -172.207535 293.976715
v 264.572083 -250.006592 264.572083
v 225.000122 -318.198029 225.000092
v 176.781387 -374.161316 176.781433
v 121.769157 -415.745789 121.769180
v 62.077370 -441.353363 62.077389
v 48.773876 441.353363 72.995216
v 95.673416 415.745789 143.185349
v 138.896225 374.161346 207.872894
v 176.781464 318.198090 264.572052
v 207.872925 250.006638 311.103760
v 230.976105 172.207581 345.680054
v 245.202850 87.790680 366.971985
v 250.006546 0.000028 374.161346
v 245.202850 -87.790619 366.971985
v 230.976105 -172.207520 345.680054
v 207.872925 -250.006577 311.103821
v 176.781464 -318.198029 264.572113
v 138.896225 -374.161285 207.872955
v 95.673416 -415.745789 143.185410
v 48.773876 -441.353363 72.995277
v 33.596024 441.353363 81.107933
v 65.900978 415.745789 159.099014
v 95.673378 374.161346 230.975952
v 121.769173 318.198090 293.976715
v 143.185333 250.006638 345.679993
v 159.099121 172.207581 384.099060
v 168.898636 87.790680 407.757385
v 172.207443 0.000031 415.745789
v 168.898636 -87.790619 407.757385
v 159.099121 -172.207520 384.099060
v 143.185333 -250.006577 345.680054
v 121.769173 -318.198029 293.976776
v 95.673378 -374.161285 230.976013
v 65.900978 -415.745789 159.099075
v 33.596024 -441.353363 81.107994
v 17.127102 441.353363 86.103722
v 33.596016 415.745789 168.898621
v 48.773838 374.161346 245.202744
v 62.077393 318.198090 312.084015
v 72.995232 250.006638 366.971893
v 81.108025 172.207581 407.757385
v 86.103745 87.790680 432.872925
v 87.790520 0.000033 441.353302
v 86.103745 -87.790619 432.872925
v 81.108025 -172.207520 407.757385
v 72.995232 -250.006577 366.971954
v 62.077393 -318.198029 312.084076
v 48.773838 -374.161285 245.202805
v 33.596016 -415.745789 168.898682
v 17.127102 -441.353363 86.103783
v -0.000004 441.353363 87.790588
v -0.000023 415.745789 172.207535
v -0.000044 374.161346 250.006531
v -0.000007 318.198090 318.198059
v -0.000047 250.006638 374.161285
v 0.000014 172.207581 415.745819
v -0.000060 87.790680 441.353394
v -0.000148 0.000034 449.999878
v -0.000060 -87.790619 441.353394
v 0.000014 -172.207520 415.745819
v -0.000047 -250.006577 374.161346
v -0.000007 -318.198029 318.198120
v -0.000044 -374.161285 250.006592
v -0.000023 -415.745789 172.207596
v -0.000004 -441.353363 87.790649
v -17.127108 441.353363 86.103714
v -33.596062 415.745789 168.898621
v -48.773922 374.161346 245.202713
v -62.077400 318.198090 312.083984
v -72.995316 250.006638 366.971863
v -81.107994 172.207581 407.757355
v -86.103867 87.790680 432.872894
v -87.790794 0.000033 441.353210
v -86.103867 -87.790619 432.872894
v -81.107994 -172.207520 407.757355
v -72.995316 -250.006577 366.971924
v -62.077400 -318.198029 312.084045
v -48.773922 -374.161285 245.202774
v -33.596062 -415.745789 168.898682
v -17.127108 -441.353363 86.103775
v -33.596024 441.353363 81.107918
v -65.901024 415.745789 159.098999
v -95.673447 374.161346 230.975876
v -121.769173 318.198090 293.976685
v -143.185425 250.006638 345.679932
v -159.099060 172.207581 384.099030
v -168.898743 87.790680 407.757294
v -172.207687 0.000031 415.745575
v -168.898743 -87.790619 407.757294
v -159.099060 -172.207520 384.099030
v -143.185425 -250.006577 345.679993
v -121.769173 -318.198029 293.976746
v -95.673447 -374.161285 230.975937
v -65.901024 -415.745789 159.099060
v -33.596024 -441.353363 81.107979
v -48.773869 441.353363 72.995193
v -95.673447 415.745789 143.185318
v -138.896271 374.161346 207.872772
v -176.781464 318.198090 264.572021
v -207.872971 250.006638 311.103668
v -230.976028 172.207581 345.680023
v -245.202927 87.790680 366.971863
v -250.006729 0.000028 374.161072
v -245.202927 -87.790619 366.971863
v -230.976028 -172.207520 345.680023
v -207.872971 -250.006577 311.103729
v -176.781464 -318.198029 264.572083
v -138.896271 -374.161285 207.872833
v -95.673447 -415.745789 143.185379
v -48.773869 -441.353363 72.995255
v -62.077358 441.353363 62.077293
v -121.769173 415.745789 121.769081
v -176.781403 374.161316 176.781235
v -225.000092 318.198090 225.000000
v -264.572083 250.006622 264.571899
v -293.976746 172.207565 293.976685
v -312.084106 87.790672 312.083893
v -318.198120 0.000024 318.197784
v -312.084106 -87.790627 312.083893
v -293.976746 -172.207535 293.976685
v -264.572083 -250.006592 264.571960
v -225.000092 -318.198029 225.000061
v -176.781403 -374.161316 176.781296
v -121.769173 -415.745789 121.769142
v -62.077358 -441.353363 62.077362
v 0.000000 -450.000000 0.000034
v -72.995247 441.353363 48.773808
v -143.185394 415.745789 95.673340
v -207.872910 374.161316 138.896103
v -264.572113 318.198059 176.781342
v -311.103851 250.006622 207.872803
v -345.680084 172.207565 230.975967
v -366.972046 87.790665 245.202698
v -374.161346 0.000019 250.006317
v -366.972046 -87.790634 245.202698
v -345.680084 -172.207535 230.975998
v -311.103851 -250.006592 207.872833
v -264.572113 -318.198059 176.781403
v -207.872910 -374.161316 138.896164
v -143.185394 -415.745789 95.673401
v -72.995247 -441.353363 48.773876
v -81.107971 441.353363 33.595966
v -159.099075 415.745789 65.900925
v -230.975983 374.161316 95.673256
v -293.976807 318.198059 121.769104
v -345.680054 250.006622 143.185226
v -384.099152 172.207565 159.099014
v -407.757477 87.790665 168.898514
v -415.745758 0.000013 172.207275
v -407.757477 -87.790634 168.898514
v -384.099152 -172.207535 159.099045
v -345.680054 -250.006592 143.185257
v -293.976807 -318.198059 121.769150
v -230.975983 -374.161316 95.673317
v -159.099075 -415.745789 65.900986
v -81.107971 -441.353363 33.596035
v -86.103760 441.353363 17.127056
v -168.898666 415.745789 33.595970
v -245.202759 374.161316 48.773758
v -312.084106 318.198059 62.077332
v -366.971985 250.006607 72.995155
v -407.757477 172.207550 81.107964
v -432.873016 87.790657 86.103653
v -441.353271 0.000007 87.790398
v -432.873016 -87.790642 86.103668
v -407.757477 -172.207550 81.107994
v -366.971985 -250.006607 72.995186
v -312.084106 -318.198059 62.077377
v -245.202759 -374.161316 48.773811
v -168.898666 -415.745789 33.596031
v -86.103760 -441.353363 17.127121
v -87.790627 441.353363 -0.000042
v -172.207581 415.745789 -0.000054
v -250.006577 374.161316 -0.000095
v -318.198181 318.198059 -0.000038
v -374.161377 250.006607 -0.000093
v -415.745880 172.207550 -0.000020
v -441.353485 87.790649 -0.000128
v -449.999878 -0.000000 -0.000200
v -441.353485 -87.790649 -0.000115
v -415.745880 -172.207550 0.000006
v -374.161377 -250.006607 -0.000055
v -318.198181 -318.198059 0.000010
v -250.006577 -374.161316 -0.000039
v -172.207581 -415.745789 0.000009
v -87.790627 -441.353363 0.000025
v -86.103752 441.353363 -17.127138
v -168.898666 415.745789 -33.596077
v -245.202744 374.161316 -48.773937
v -312.084076 318.198059 -62.077404
v -366.971924 250.006607 -72.995331
v -407.757446 172.207550 -81.107994
v -432.872955 87.790642 -86.103889
v -441.353210 -0.000007 -87.790794
v -432.872955 -87.790657 -86.103874
v -407.757446 -172.207550 -81.107964
v -366.971924 -250.006607 -72.995300
v -312.084076 -318.198059 -62.077358
v -245.202744 -374.161316 -48.773884
v -168.898666 -415.745789 -33.596016
v -86.103752 -441.353363 -17.127073
v -81.107956 441.353363 -33.596050
v -159.099045 415.745789 -65.901024
v -230.975891 374.161316 -95.673431
v -293.976776 318.198059 -121.769157
v -345.679993 250.006592 -143.185394
v -384.099121 172.207535 -159.099030
v -407.757355 87.790634 -168.898712
v -415.745575 -0.000013 -172.207642
v -407.757355 -87.790665 -168.898712
v -384.099121 -172.207565 -159.098999
v -345.679993 -250.006622 -143.185364
v -293.976776 -318.198059 -121.769112
v -230.975891 -374.161316 -95.673370
v -159.099045 -415.745789 -65.900963
v -81.107956 -441.353363 -33.595982
v -72.995224 441.353363 -48.773884
v -143.185333 415.745789 -95.673424
v -207.872787 374.161316 -138.896255
v -264.572083 318.198059 -176.781418
v -311.103729 250.006592 -207.872925
v -345.680054 172.207535 -230.975983
v -366.971893 87.790634 -245.202850
v -374.161041 -0.000019 -250.006607
v -366.971893 -87.790665 -245.202850
v -345.680054 -172.207565 -230.975952
v -311.103729 -250.006622 -207.872894
v -264.572083 -318.198059 -176.781357
v -207.872787 -374.161316 -138.896194
v -143.185333 -415.745789 -95.673363
v -72.995224 -441.353363 -48.773815
v -62.077339 441.353363 -62.077362
v -121.769119 415.745789 -121.769142
v -176.781250 374.161316 -176.781357
v -225.000076 318.198029 -225.000061
v -264.571930 250.006592 -264.572021
v -293.976715 172.207535 -293.976624
v -312.083923 87.790627 -312.083984
v -318.197784 -0.000024 -318.197968
v -312.083923 -87.790672 -312.083984
v -293.976715 -172.207565 -293.976624
v -264.571930 -250.006622 -264.571960
v -225.000076 -318.198090 -225.000000
v -176.781250 -374.161316 -176.781296
v -121.769119 -415.745789 -121.769081
v -62.077339 -441.353363 -62.077293
v -48.773846 441.353363 -72.995239
v -95.673386 415.745789 -143.185364
v -138.896103 374.161285 -207.872849
v -176.781403 318.198029 -264.572083
v -207.872803 250.006577 -311.103729
v -230.975998 172.207520 -345.679962
v -245.202713 87.790619 -366.971893
v -250.006332 -0.000028 -374.161163
v -245.202713 -87.790680 -366.971893
v -230.975998 -172.207581 -345.679962
v -207.872803 -250.006638 -311.103668
v -176.781403 -318.198090 -264.572021
v -138.896103 -374.161346 -207.872787
v -95.673386 -415.745789 -143.185303
v -48.773846 -441.353363 -72.995178
v -33.596004 441.353363 -81.107956
v -65.900963 415.745789 -159.099045
v -95.673264 374.161285 -230.975891
v -121.769135 318.198029 -293.976746
v -143.185226 250.006577 -345.679932
v -159.099030 172.207520 -384.098969
v -168.898529 87.790619 -407.757263
v -172.207275 -0.000031 -415.745544
v -168.898529 -87.790680 -407.757263
v -159.099030 -172.207581 -384.098969
v -143.185226 -250.006638 -345.679871
v -121.769135 -318.198090 -293.976685
v -95.673264 -374.161346 -230.975830
v -65.900963 -415.745789 -159.098984
v -33.596004 -441.353363 -81.107895
v -17.127090 441.353363 -86.103745
v -33.596001 415.745789 -168.898636
v -48.773750 374.161285 -245.202637
v -62.077351 318.198029 -312.084045
v -72.995140 250.006577 -366.971832
v -81.107971 172.207520 -407.757263
v -86.103653 87.790619 -432.872803
v -87.790390 -0.000033 -441.353027
v -86.103653 -87.790680 -432.872803
v -81.107971 -172.207581 -407.757263
v -72.995140 -250.006638 -366.971771
v -62.077351 -318.198090 -312.083984
v -48.773750 -374.161346 -245.202576
v -33.596001 -415.745789 -168.898575
v -17.127090 -441.353363 -86.103683
v 0.000007 441.353363 -87.790611
v 0.000030 415.745789 -172.207550
v 0.000040 318.198029 -318.198090
v 0.000026 172.207520 -415.745728
v 0.000026 -172.207581 -415.745728
v 0.000040 -318.198090 -318.198029
v 0.000097 -374.161346 -250.006332
v 0.000030 -415.745789 -172.207489
v 0.000007 -441.353363 -87.790550
vn -0.1092 0.8286 0.5490
vn -0.0000 0.7041 0.7101
vn -0.0000 0.8286 0.5598
vn -0.0000 -0.3805 0.9248
vn -0.1626 -0.5528 0.8173
vn -0.0000 -0.5528 0.8333
vn -0.0757 0.9217 0.3804
vn -0.0000 0.9217 0.3879
vn -0.0000 -0.1939 0.9810
vn -0.1804 -0.3805 0.9070
vn -0.0392 0.9796 0.1971
vn -0.0000 0.9796 0.2010
vn -0.1951 -0.0000 0.9808
vn -0.0000 -0.0000 1.0000
vn -0.0000 -0.9796 0.2010
vn -0.0392 -0.9796 0.1971
vn -0.0000 -1.0000 -0.0000
vn -0.0000 1.0000 -0.0000
vn -0.1914 0.1939 0.9622
vn -0.0000 0.1939 0.9810
vn -0.0000 -0.9217 0.3879
vn -0.1804 0.3805 0.9070
vn -0.0000 0.3805 0.9248
vn -0.0000 -0.8286 0.5598
vn -0.0757 -0.9217 0.3804
vn -0.1626 0.5528 0.8173
vn -0.0000 0.5528 0.8333
vn -0.0000 -0.7041 0.7101
vn -0.1092 -0.8286 0.5490
vn -0.1385 0.7041 0.6965
vn -0.3189 0.5528 0.7699
vn -0.3189 -0.5528 0.7699
vn -0.1385 -0.7041 0.6965
vn -0.2718 0.7041 0.6561
vn -0.3539 -0.3805 0.8544
vn -0.2142 0.8286 0.5172
vn -0.1914 -0.1939 0.9622
vn -0.0769 0.9796 0.1857
vn -0.3827 -0.0000 0.9239
vn -0.0769 -0.9796 0.1857
vn -0.3754 0.1939 0.9063
vn -0.1484 -0.9217 0.3584
vn -0.3539 0.3805 0.8544
vn -0.2142 -0.8286 0.5172
vn -0.2718 -0.7041 0.6561
vn -0.1117 -0.9796 0.1671
vn -0.1117 0.9796 0.1671
vn -0.5450 0.1939 0.8157
vn -0.2155 -0.9217 0.3225
vn -0.5138 0.3805 0.7689
vn -0.3110 -0.8286 0.4654
vn -0.3945 -0.7041 0.5905
vn -0.4630 0.5528 0.6929
vn -0.4630 -0.5528 0.6929
vn -0.3945 0.7041 0.5905
vn -0.5138 -0.3805 0.7689
vn -0.1484 0.9217 0.3584
vn -0.3110 0.8286 0.4654
vn -0.3754 -0.1939 0.9063
vn -0.2155 0.9217 0.3225
vn -0.5450 -0.1939 0.8157
vn -0.5021 -0.7041 0.5021
vn -0.5021 0.7041 0.5021
vn -0.6539 -0.3805 0.6539
vn -0.3958 0.8286 0.3958
vn -0.2743 0.9217 0.2743
vn -0.5556 -0.0000 0.8315
vn -0.6937 -0.1939 0.6937
vn -0.1421 -0.9796 0.1421
vn -0.1421 0.9796 0.1421
vn -0.6937 0.1939 0.6937
vn -0.2743 -0.9217 0.2743
vn -0.6539 0.3805 0.6539
vn -0.3958 -0.8286 0.3958
vn -0.8157 0.1939 0.5450
vn -0.7071 -0.0000 0.7071
vn -0.1671 -0.9796 0.1117
vn -0.7689 0.3805 0.5138
vn -0.3225 -0.9217 0.2155
vn -0.5893 0.5528 0.5893
vn -0.5905 -0.7041 0.3945
vn -0.5905 0.7041 0.3945
vn -0.5893 -0.5528 0.5893
vn -0.7689 -0.3805 0.5138
vn -0.3225 0.9217 0.2155
vn -0.1671 0.9796 0.1117
vn -0.8157 -0.1939 0.5450
vn -0.4654 0.8286 0.3110
vn -0.6561 0.7041 0.2718
vn -0.8544 -0.3805 0.3539
vn -0.6929 -0.5528 0.4630
vn -0.5172 0.8286 0.2142
vn -0.3584 0.9217 0.1484
vn -0.8315 -0.0000 0.5556
vn -0.9063 -0.1939 0.3754
vn -0.1857 -0.9796 0.0769
vn -0.1857 0.9796 0.0769
vn -0.9063 0.1939 0.3754
vn -0.3584 -0.9217 0.1484
vn -0.8544 0.3805 0.3539
vn -0.5172 -0.8286 0.2142
vn -0.4654 -0.8286 0.3110
vn -0.6929 0.5528 0.4630
vn -0.6561 -0.7041 0.2718
vn -0.9070 0.3805 0.1804
vn -0.3804 -0.9217 0.0757
vn -0.7699 0.5528 0.3189
vn -0.6965 -0.7041 0.1385
vn -0.6965 0.7041 0.1385
vn -0.7699 -0.5528 0.3189
vn -0.9070 -0.3805 0.1804
vn -0.3804 0.9217 0.0757
vn -0.1971 0.9796 0.0392
vn -0.9239 -0.0000 0.3827
vn -0.9622 -0.1939 0.1914
vn -0.1971 -0.9796 0.0392
vn -0.9622 0.1939 0.1914
vn -0.5598 0.8286 -0.0000
vn -0.5490 0.8286 0.1092
vn -0.9248 -0.3805 -0.0000
vn -0.2010 0.9796 -0.0000
vn -0.9808 -0.0000 0.1951
vn -0.9810 -0.1939 -0.0000
vn -0.2010 -0.9796 -0.0000
vn -0.9810 0.1939 -0.0000
vn -0.3879 -0.9217 -0.0000
vn -0.9248 0.3805 -0.0000
vn -0.5598 -0.8286 -0.0000
vn -0.5490 -0.8286 0.1092
vn -0.8173 0.5528 0.1626
vn -0.7101 -0.7041 -0.0000
vn -0.7101 0.7041 -0.0000
vn -0.8173 -0.5528 0.1626
vn -0.3804 -0.9217 -0.0757
vn -0.8333 0.5528 -0.0000
vn -0.9070 0.3805 -0.1804
vn -0.6965 -0.7041 -0.1385
vn -0.6965 0.7041 -0.1385
vn -0.8333 -0.5528 -0.0000
vn -0.9070 -0.3805 -0.1804
vn -0.3804 0.9217 -0.0757
vn -0.3879 0.9217 -0.0000
vn -0.1971 0.9796 -0.0392
vn -1.0000 -0.0000 -0.0000
vn -0.9622 -0.1939 -0.1914
vn -0.1971 -0.9796 -0.0392
vn -0.9622 0.1939 -0.1914
vn -0.8544 -0.3805 -0.3539
vn -0.1857 0.9796 -0.0769
vn -0.9808 -0.0000 -0.1951
vn -0.9063 -0.1939 -0.3754
vn -0.1857 -0.9796 -0.0769
vn -0.9063 0.1939 -0.3754
vn -0.3584 -0.9217 -0.1484
vn -0.8544 0.3805 -0.3539
vn -0.5172 -0.8286 -0.2142
vn -0.5490 -0.8286 -0.1092
vn -0.8173 0.5528 -0.1626
vn -0.6561 -0.7041 -0.2718
vn -0.6561 0.7041 -0.2718
vn -0.8173 -0.5528 -0.1626
vn -0.5490 0.8286 -0.1092
vn -0.5172 0.8286 -0.2142
vn -0.7699 0.5528 -0.3189
vn -0.7689 0.3805 -0.5138
vn -0.5905 -0.7041 -0.3945
vn -0.5905 0.7041 -0.3945
vn -0.7699 -0.5528 -0.3189
vn -0.7689 -0.3805 -0.5138
vn -0.3584 0.9217 -0.1484
vn -0.4654 0.8286 -0.3110
vn -0.3225 0.9217 -0.2155
vn -0.9239 -0.0000 -0.3827
vn -0.8157 -0.1939 -0.5450
vn -0.1671 -0.9796 -0.1117
vn -0.1671 0.9796 -0.1117
vn -0.8157 0.1939 -0.5450
vn -0.3225 -0.9217 -0.2155
vn -0.4654 -0.8286 -0.3110
vn -0.2743 0.9217 -0.2743
vn -0.8315 -0.0000 -0.5556
vn -0.6937 -0.1939 -0.6937
vn -0.1421 -0.9796 -0.1421
vn -0.1421 0.9796 -0.1421
vn -0.6937 0.1939 -0.6937
vn -0.2743 -0.9217 -0.2743
vn -0.6539 0.3805 -0.6539
vn -0.3958 -0.8286 -0.3958
vn -0.6929 0.5528 -0.4630
vn -0.5021 -0.7041 -0.5021
vn -0.5021 0.7041 -0.5021
vn -0.6929 -0.5528 -0.4630
vn -0.6539 -0.3805 -0.6539
vn -0.3958 0.8286 -0.3958
vn -0.3945 -0.7041 -0.5905
vn -0.3945 0.7041 -0.5905
vn -0.5893 0.5528 -0.5893
vn -0.5893 -0.5528 -0.5893
vn -0.5138 -0.3805 -0.7689
vn -0.2155 0.9217 -0.3225
vn -0.1117 0.9796 -0.1671
vn -0.7071 -0.0000 -0.7071
vn -0.5450 -0.1939 -0.8157
vn -0.1117 -0.9796 -0.1671
vn -0.5450 0.1939 -0.8157
vn -0.5138 0.3805 -0.7689
vn -0.2155 -0.9217 -0.3225
vn -0.5556 -0.0000 -0.8315
vn -0.3754 -0.1939 -0.9063
vn -0.0769 -0.9796 -0.1857
vn -0.0769 0.9796 -0.1857
vn -0.3754 0.1939 -0.9063
vn -0.1484 -0.9217 -0.3584
vn -0.3539 0.3805 -0.8544
vn -0.2142 -0.8286 -0.5172
vn -0.3110 -0.8286 -0.4654
vn -0.4630 0.5528 -0.6929
vn -0.2718 -0.7041 -0.6561
vn -0.2718 0.7041 -0.6561
vn -0.4630 -0.5528 -0.6929
vn -0.3110 0.8286 -0.4654
vn -0.3539 -0.3805 -0.8544
vn -0.2142 0.8286 -0.5172
vn -0.1484 0.9217 -0.3584
vn -0.1385 0.7041 -0.6965
vn -0.3189 0.5528 -0.7699
vn -0.3189 -0.5528 -0.7699
vn -0.1385 -0.7041 -0.6965
vn -0.1804 -0.3805 -0.9070
vn -0.1092 0.8286 -0.5490
vn -0.0757 0.9217 -0.3804
vn -0.3827 -0.0000 -0.9239
vn -0.1914 -0.1939 -0.9622
vn -0.0392 -0.9796 -0.1971
vn -0.0392 0.9796 -0.1971
vn -0.1914 0.1939 -0.9622
vn -0.0757 -0.9217 -0.3804
vn -0.1804 0.3805 -0.9070
vn -0.1092 -0.8286 -0.5490
vn -0.0000 0.9796 -0.2010
vn -0.0000 0.1939 -0.9810
vn -0.1951 -0.0000 -0.9808
vn -0.0000 -0.9796 -0.2010
vn -0.0000 0.3805 -0.9248
vn -0.0000 -0.8286 -0.5598
vn -0.1626 0.5528 -0.8173
vn -0.0000 -0.7041 -0.7101
vn -0.0000 0.7041 -0.7101
vn -0.1626 -0.5528 -0.8173
vn -0.0000 -0.3805 -0.9248
vn -0.0000 0.8286 -0.5598
vn -0.0000 -0.1939 -0.9810
vn 0.1385 0.7041 -0.6965
vn 0.1804 -0.3805 -0.9070
vn -0.0000 -0.5528 -0.8333
vn 0.0757 0.9217 -0.3804
vn -0.0000 0.9217 -0.3879
vn 0.0392 0.9796 -0.1971
vn -0.0000 -0.0000 -1.0000
vn 0.1914 -0.1939 -0.9622
vn 0.0392 -0.9796 -0.1971
vn 0.1914 0.1939 -0.9622
vn -0.0000 -0.9217 -0.3879
vn 0.1804 0.3805 -0.9070
vn 0.0757 -0.9217 -0.3804
vn -0.0000 0.5528 -0.8333
vn 0.1385 -0.7041 -0.6965
vn 0.0769 -0.9796 -0.1857
vn 0.3539 0.3805 -0.8544
vn 0.2142 -0.8286 -0.5172
vn 0.1092 -0.8286 -0.5490
vn 0.1626 0.5528 -0.8173
vn 0.2718 -0.7041 -0.6561
vn 0.2718 0.7041 -0.6561
vn 0.1626 -0.5528 -0.8173
vn 0.1092 0.8286 -0.5490
vn 0.3539 -0.3805 -0.8544
vn 0.2142 0.8286 -0.5172
vn 0.0769 0.9796 -0.1857
vn 0.1951 -0.0000 -0.9808
vn 0.3754 -0.1939 -0.9063
vn 0.3754 0.1939 -0.9063
vn 0.5138 -0.3805 -0.7689
vn 0.3189 -0.5528 -0.7699
vn 0.2155 0.9217 -0.3225
vn 0.1484 0.9217 -0.3584
vn 0.1117 0.9796 -0.1671
vn 0.3827 -0.0000 -0.9239
vn 0.5450 -0.1939 -0.8157
vn 0.1116 -0.9796 -0.1671
vn 0.5450 0.1939 -0.8157
vn 0.2155 -0.9217 -0.3225
vn 0.1484 -0.9217 -0.3584
vn 0.5138 0.3805 -0.7689
vn 0.3110 -0.8286 -0.4654
vn 0.3189 0.5528 -0.7699
vn 0.3945 -0.7041 -0.5905
vn 0.3945 0.7041 -0.5905
vn 0.6539 0.3805 -0.6539
vn 0.2743 -0.9217 -0.2743
vn 0.4630 0.5528 -0.6929
vn 0.5021 -0.7041 -0.5021
vn 0.5021 0.7041 -0.5021
vn 0.4630 -0.5528 -0.6929
vn 0.3110 0.8286 -0.4654
vn 0.6539 -0.3805 -0.6539
vn 0.2743 0.9217 -0.2743
vn 0.5556 -0.0000 -0.8315
vn 0.6937 -0.1939 -0.6937
vn 0.1421 -0.9796 -0.1421
vn 0.1421 0.9796 -0.1421
vn 0.6937 0.1939 -0.6937
vn 0.3225 0.9217 -0.2155
vn 0.3958 0.8286 -0.3958
vn 0.7689 -0.3805 -0.5138
vn 0.1671 0.9796 -0.1117
vn 0.7071 -0.0000 -0.7071
vn 0.8157 -0.1939 -0.5450
vn 0.1671 -0.9796 -0.1117
vn 0.8157 0.1939 -0.5450
vn 0.7689 0.3805 -0.5138
vn 0.3958 -0.8286 -0.3958
vn 0.3225 -0.9217 -0.2155
vn 0.5893 0.5528 -0.5893
vn 0.5905 -0.7041 -0.3945
vn 0.5905 0.7041 -0.3945
vn 0.5893 -0.5528 -0.5893
vn 0.5172 -0.8286 -0.2142
vn 0.4654 -0.8286 -0.3110
vn 0.6929 0.5528 -0.4630
vn 0.8544 0.3805 -0.3539
vn 0.6561 -0.7041 -0.2718
vn 0.6561 0.7041 -0.2718
vn 0.6929 -0.5528 -0.4630
vn 0.4654 0.8286 -0.3110
vn 0.8544 -0.3805 -0.3539
vn 0.3584 0.9217 -0.1484
vn 0.8315 -0.0000 -0.5556
vn 0.9063 -0.1939 -0.3754
vn 0.1857 -0.9796 -0.0769
vn 0.1857 0.9796 -0.0769
vn 0.9063 0.1939 -0.3754
vn 0.3584 -0.9217 -0.1484
vn 0.9070 -0.3805 -0.1804
vn 0.3804 0.9217 -0.0757
vn 0.9239 -0.0000 -0.3827
vn 0.9622 -0.1939 -0.1914
vn 0.1971 -0.9796 -0.0392
vn 0.1971 0.9796 -0.0392
vn 0.9622 0.1939 -0.1914
vn 0.3804 -0.9217 -0.0757
vn 0.9070 0.3805 -0.1804
vn 0.7699 0.5528 -0.3189
vn 0.6965 -0.7041 -0.1385
vn 0.6965 0.7041 -0.1385
vn 0.7699 -0.5528 -0.3189
vn 0.5172 0.8286 -0.2142
vn 0.8173 0.5528 -0.1626
vn 0.9248 0.3805 -0.0000
vn 0.7101 -0.7041 -0.0000
vn 0.5490 -0.8286 -0.1092
vn 0.7101 0.7041 -0.0000
vn 0.8173 -0.5528 -0.1626
vn 0.5490 0.8286 -0.1092
vn 0.9248 -0.3805 -0.0000
vn 0.3879 0.9217 -0.0000
vn 0.9808 -0.0000 -0.1951
vn 0.9810 -0.1939 -0.0000
vn 0.2010 -0.9796 -0.0000
vn 0.2010 0.9796 -0.0000
vn 0.9810 0.1939 -0.0000
vn 0.3879 -0.9217 -0.0000
vn 0.1971 0.9796 0.0392
vn 1.0000 -0.0000 -0.0000
vn 0.9622 -0.1939 0.1914
vn 0.1971 -0.9796 0.0392
vn 0.9622 0.1939 0.1914
vn 0.9070 0.3805 0.1804
vn 0.5598 -0.8286 -0.0000
vn 0.3804 -0.9217 0.0757
vn 0.8333 0.5528 -0.0000
vn 0.6965 -0.7041 0.1385
vn 0.6965 0.7041 0.1385
vn 0.8333 -0.5528 -0.0000
vn 0.5598 0.8286 -0.0000
vn 0.9070 -0.3805 0.1804
vn 0.3804 0.9217 0.0757
vn 0.6561 0.7041 0.2718
vn 0.8173 0.5528 0.1626
vn 0.8173 -0.5528 0.1626
vn 0.6561 -0.7041 0.2718
vn 0.5490 0.8286 0.1092
vn 0.8544 -0.3805 0.3539
vn 0.3584 0.9217 0.1484
vn 0.1857 0.9796 0.0769
vn 0.9808 -0.0000 0.1951
vn 0.9063 -0.1939 0.3754
vn 0.1857 -0.9796 0.0769
vn 0.9063 0.1939 0.3754
vn 0.8544 0.3805 0.3539
vn 0.5490 -0.8286 0.1092
vn 0.3584 -0.9217 0.1484
vn 0.1671 -0.9796 0.1117
vn 0.1671 0.9796 0.1117
vn 0.8157 0.1939 0.5450
vn 0.9239 -0.0000 0.3827
vn 0.3225 -0.9217 0.2155
vn 0.7689 0.3805 0.5138
vn 0.5172 -0.8286 0.2142
vn 0.7699 0.5528 0.3189
vn 0.5905 -0.7041 0.3945
vn 0.5905 0.7041 0.3945
vn 0.7699 -0.5528 0.3189
vn 0.5172 0.8286 0.2142
vn 0.7689 -0.3805 0.5138
vn 0.3225 0.9217 0.2155
vn 0.8157 -0.1939 0.5450
vn 0.6929 -0.5528 0.4630
vn 0.5021 -0.7041 0.5021
vn 0.4654 0.8286 0.3110
vn 0.5021 0.7041 0.5021
vn 0.6539 -0.3805 0.6539
vn 0.2743 0.9217 0.2743
vn 0.1421 0.9796 0.1421
vn 0.8315 -0.0000 0.5556
vn 0.6937 -0.1939 0.6937
vn 0.1421 -0.9796 0.1421
vn 0.6937 0.1939 0.6937
vn 0.2743 -0.9217 0.2743
vn 0.6539 0.3805 0.6539
vn 0.4654 -0.8286 0.3110
vn 0.6929 0.5528 0.4630
vn 0.5450 0.1939 0.8157
vn 0.7071 -0.0000 0.7071
vn 0.2155 -0.9217 0.3225
vn 0.5138 0.3805 0.7689
vn 0.3958 -0.8286 0.3958
vn 0.5893 0.5528 0.5893
vn 0.3945 -0.7041 0.5905
vn 0.3945 0.7041 0.5905
vn 0.5893 -0.5528 0.5893
vn 0.3958 0.8286 0.3958
vn 0.5138 -0.3805 0.7689
vn 0.2155 0.9217 0.3225
vn 0.5450 -0.1939 0.8157
vn 0.1117 -0.9796 0.1671
vn 0.1117 0.9796 0.1671
vn 0.3110 0.8286 0.4654
vn 0.2718 0.7041 0.6561
vn 0.3539 -0.3805 0.8544
vn 0.4630 -0.5528 0.6929
vn 0.1484 0.9217 0.3584
vn 0.0769 0.9796 0.1857
vn 0.5556 -0.0000 0.8315
vn 0.3754 -0.1939 0.9063
vn 0.0769 -0.9796 0.1857
vn 0.3754 0.1939 0.9063
vn 0.3539 0.3805 0.8544
vn 0.3110 -0.8286 0.4654
vn 0.1484 -0.9217 0.3584
vn 0.4630 0.5528 0.6929
vn 0.2718 -0.7041 0.6561
vn 0.0757 -0.9217 0.3804
vn 0.1804 0.3805 0.9070
vn 0.2142 -0.8286 0.5172
vn 0.3189 0.5528 0.7699
vn 0.1385 -0.7041 0.6965
vn 0.1385 0.7041 0.6965
vn 0.3189 -0.5528 0.7699
vn 0.2142 0.8286 0.5172
vn 0.1804 -0.3805 0.9070
vn 0.0757 0.9217 0.3804
vn 0.3827 -0.0000 0.9239
vn 0.1914 -0.1939 0.9622
vn 0.0392 -0.9796 0.1971
vn 0.0392 0.9796 0.1971
vn 0.1914 0.1939 0.9622
vn 0.1626 -0.5528 0.8173
vn 0.1092 0.8286 0.5490
vn 0.1951 -0.0000 0.9808
vn 0.1092 -0.8286 0.5490
vn 0.1626 0.5528 0.8173
vt 0.718750 0.187500
vt 0.750000 0.250000
vt 0.750000 0.187500
vt 0.750000 0.625000
vt 0.718750 0.687500
vt 0.750000 0.687500
vt 0.718750 0.125000
vt 0.750000 0.125000
vt 0.750000 0.562500
vt 0.718750 0.625000
vt 0.718750 0.062500
vt 0.750000 0.062500
vt 0.718750 0.500000
vt 0.750000 0.500000
vt 0.750000 0.937500
vt 0.718750 0.937500
vt 0.734375 1.000000
vt 0.734375 0.000000
vt 0.718750 0.437500
vt 0.750000 0.437500
vt 0.750000 0.875000
vt 0.718750 0.375000
vt 0.750000 0.375000
vt 0.750000 0.812500
vt 0.718750 0.875000
vt 0.718750 0.312500
vt 0.750000 0.312500
vt 0.750000 0.750000
vt 0.718750 0.812500
vt 0.718750 0.250000
vt 0.687500 0.312500
vt 0.687500 0.687500
vt 0.718750 0.750000
vt 0.687500 0.250000
vt 0.687500 0.625000
vt 0.687500 0.187500
vt 0.718750 0.562500
vt 0.687500 0.062500
vt 0.687500 0.500000
vt 0.687500 0.937500
vt 0.703125 1.000000
vt 0.703125 0.000000
vt 0.687500 0.437500
vt 0.687500 0.875000
vt 0.687500 0.375000
vt 0.687500 0.812500
vt 0.687500 0.750000
vt 0.656250 0.937500
vt 0.671875 1.000000
vt 0.671875 0.000000
vt 0.656250 0.062500
vt 0.656250 0.437500
vt 0.656250 0.875000
vt 0.656250 0.375000
vt 0.656250 0.812500
vt 0.656250 0.750000
vt 0.656250 0.312500
vt 0.656250 0.687500
vt 0.656250 0.250000
vt 0.656250 0.625000
vt 0.687500 0.125000
vt 0.656250 0.187500
vt 0.687500 0.562500
vt 0.656250 0.125000
vt 0.656250 0.562500
vt 0.625000 0.750000
vt 0.625000 0.250000
vt 0.625000 0.625000
vt 0.625000 0.187500
vt 0.625000 0.125000
vt 0.656250 0.500000
vt 0.625000 0.562500
vt 0.625000 0.937500
vt 0.640625 1.000000
vt 0.640625 0.000000
vt 0.625000 0.062500
vt 0.625000 0.437500
vt 0.625000 0.875000
vt 0.625000 0.375000
vt 0.625000 0.812500
vt 0.593750 0.437500
vt 0.625000 0.500000
vt 0.593750 0.937500
vt 0.593750 0.375000
vt 0.593750 0.875000
vt 0.625000 0.312500
vt 0.593750 0.750000
vt 0.593750 0.250000
vt 0.625000 0.687500
vt 0.593750 0.625000
vt 0.593750 0.125000
vt 0.593750 0.062500
vt 0.593750 0.562500
vt 0.609375 1.000000
vt 0.609375 0.000000
vt 0.593750 0.187500
vt 0.562500 0.250000
vt 0.562500 0.625000
vt 0.593750 0.687500
vt 0.562500 0.187500
vt 0.562500 0.125000
vt 0.593750 0.500000
vt 0.562500 0.562500
vt 0.562500 0.937500
vt 0.578125 1.000000
vt 0.578125 0.000000
vt 0.562500 0.062500
vt 0.562500 0.437500
vt 0.562500 0.875000
vt 0.562500 0.375000
vt 0.562500 0.812500
vt 0.593750 0.812500
vt 0.593750 0.312500
vt 0.562500 0.750000
vt 0.531250 0.375000
vt 0.531250 0.875000
vt 0.562500 0.312500
vt 0.531250 0.750000
vt 0.531250 0.250000
vt 0.562500 0.687500
vt 0.531250 0.625000
vt 0.531250 0.125000
vt 0.531250 0.062500
vt 0.562500 0.500000
vt 0.531250 0.562500
vt 0.531250 0.937500
vt 0.546875 1.000000
vt 0.546875 0.000000
vt 0.531250 0.437500
vt 0.500000 0.187500
vt 0.531250 0.187500
vt 0.500000 0.625000
vt 0.500000 0.062500
vt 0.531250 0.500000
vt 0.500000 0.562500
vt 0.500000 0.937500
vt 0.515625 1.000000
vt 0.515625 0.000000
vt 0.500000 0.437500
vt 0.500000 0.875000
vt 0.500000 0.375000
vt 0.500000 0.812500
vt 0.531250 0.812500
vt 0.531250 0.312500
vt 0.500000 0.750000
vt 0.500000 0.250000
vt 0.531250 0.687500
vt 0.468750 0.875000
vt 0.500000 0.312500
vt 0.468750 0.375000
vt 0.468750 0.750000
vt 0.468750 0.250000
vt 0.500000 0.687500
vt 0.468750 0.625000
vt 0.468750 0.125000
vt 0.500000 0.125000
vt 0.468750 0.062500
vt 0.500000 0.500000
vt 0.468750 0.562500
vt 0.468750 0.937500
vt 0.484375 1.000000
vt 0.484375 0.000000
vt 0.468750 0.437500
vt 0.437500 0.625000
vt 0.437500 0.062500
vt 0.468750 0.500000
vt 0.437500 0.562500
vt 0.437500 0.937500
vt 0.453125 1.000000
vt 0.453125 0.000000
vt 0.437500 0.437500
vt 0.437500 0.875000
vt 0.437500 0.375000
vt 0.437500 0.812500
vt 0.468750 0.812500
vt 0.468750 0.312500
vt 0.437500 0.750000
vt 0.437500 0.250000
vt 0.468750 0.687500
vt 0.468750 0.187500
vt 0.437500 0.187500
vt 0.437500 0.312500
vt 0.406250 0.375000
vt 0.406250 0.750000
vt 0.406250 0.250000
vt 0.437500 0.687500
vt 0.406250 0.625000
vt 0.437500 0.125000
vt 0.406250 0.187500
vt 0.406250 0.125000
vt 0.437500 0.500000
vt 0.406250 0.562500
vt 0.406250 0.937500
vt 0.421875 1.000000
vt 0.421875 0.000000
vt 0.406250 0.062500
vt 0.406250 0.437500
vt 0.406250 0.875000
vt 0.406250 0.812500
vt 0.375000 0.125000
vt 0.406250 0.500000
vt 0.375000 0.562500
vt 0.375000 0.937500
vt 0.390625 1.000000
vt 0.390625 0.000000
vt 0.375000 0.062500
vt 0.375000 0.437500
vt 0.375000 0.875000
vt 0.375000 0.375000
vt 0.375000 0.812500
vt 0.406250 0.312500
vt 0.375000 0.750000
vt 0.375000 0.250000
vt 0.406250 0.687500
vt 0.375000 0.625000
vt 0.375000 0.187500
vt 0.343750 0.750000
vt 0.343750 0.250000
vt 0.375000 0.312500
vt 0.375000 0.687500
vt 0.343750 0.625000
vt 0.343750 0.125000
vt 0.343750 0.062500
vt 0.375000 0.500000
vt 0.343750 0.562500
vt 0.343750 0.937500
vt 0.359375 1.000000
vt 0.359375 0.000000
vt 0.343750 0.437500
vt 0.343750 0.375000
vt 0.343750 0.875000
vt 0.343750 0.500000
vt 0.312500 0.562500
vt 0.312500 0.937500
vt 0.328125 1.000000
vt 0.328125 0.000000
vt 0.312500 0.062500
vt 0.312500 0.437500
vt 0.312500 0.875000
vt 0.312500 0.375000
vt 0.312500 0.812500
vt 0.343750 0.812500
vt 0.343750 0.312500
vt 0.312500 0.750000
vt 0.312500 0.250000
vt 0.343750 0.687500
vt 0.343750 0.187500
vt 0.312500 0.625000
vt 0.312500 0.187500
vt 0.312500 0.125000
vt 0.281250 0.250000
vt 0.312500 0.312500
vt 0.312500 0.687500
vt 0.281250 0.750000
vt 0.281250 0.625000
vt 0.281250 0.187500
vt 0.281250 0.125000
vt 0.312500 0.500000
vt 0.281250 0.562500
vt 0.281250 0.937500
vt 0.296875 1.000000
vt 0.296875 0.000000
vt 0.281250 0.062500
vt 0.281250 0.437500
vt 0.281250 0.875000
vt 0.281250 0.375000
vt 0.281250 0.812500
vt 0.265625 0.000000
vt 0.250000 0.062500
vt 0.250000 0.437500
vt 0.281250 0.500000
vt 0.250000 0.937500
vt 0.250000 0.375000
vt 0.250000 0.812500
vt 0.281250 0.312500
vt 0.250000 0.750000
vt 0.250000 0.250000
vt 0.281250 0.687500
vt 0.250000 0.625000
vt 0.250000 0.187500
vt 0.250000 0.562500
vt 0.265625 1.000000
vt 0.218750 0.250000
vt 0.218750 0.625000
vt 0.250000 0.687500
vt 0.218750 0.125000
vt 0.250000 0.125000
vt 0.218750 0.062500
vt 0.250000 0.500000
vt 0.218750 0.562500
vt 0.218750 0.937500
vt 0.234375 1.000000
vt 0.234375 0.000000
vt 0.218750 0.437500
vt 0.250000 0.875000
vt 0.218750 0.375000
vt 0.218750 0.875000
vt 0.250000 0.312500
vt 0.218750 0.750000
vt 0.187500 0.937500
vt 0.187500 0.375000
vt 0.187500 0.812500
vt 0.218750 0.812500
vt 0.218750 0.312500
vt 0.187500 0.750000
vt 0.187500 0.250000
vt 0.218750 0.687500
vt 0.218750 0.187500
vt 0.187500 0.625000
vt 0.187500 0.187500
vt 0.187500 0.062500
vt 0.218750 0.500000
vt 0.187500 0.562500
vt 0.203125 1.000000
vt 0.203125 0.000000
vt 0.187500 0.437500
vt 0.156250 0.625000
vt 0.187500 0.687500
vt 0.156250 0.125000
vt 0.187500 0.125000
vt 0.156250 0.062500
vt 0.187500 0.500000
vt 0.156250 0.562500
vt 0.156250 0.937500
vt 0.171875 1.000000
vt 0.171875 0.000000
vt 0.156250 0.437500
vt 0.156250 0.875000
vt 0.187500 0.875000
vt 0.156250 0.375000
vt 0.156250 0.812500
vt 0.187500 0.312500
vt 0.156250 0.750000
vt 0.156250 0.250000
vt 0.125000 0.375000
vt 0.125000 0.875000
vt 0.156250 0.312500
vt 0.125000 0.750000
vt 0.125000 0.250000
vt 0.156250 0.687500
vt 0.156250 0.187500
vt 0.125000 0.625000
vt 0.125000 0.125000
vt 0.156250 0.500000
vt 0.125000 0.562500
vt 0.125000 0.937500
vt 0.140625 1.000000
vt 0.140625 0.000000
vt 0.125000 0.062500
vt 0.125000 0.437500
vt 0.093750 0.125000
vt 0.125000 0.187500
vt 0.093750 0.625000
vt 0.093750 0.062500
vt 0.125000 0.500000
vt 0.093750 0.562500
vt 0.093750 0.937500
vt 0.109375 1.000000
vt 0.109375 0.000000
vt 0.093750 0.437500
vt 0.093750 0.375000
vt 0.125000 0.812500
vt 0.093750 0.875000
vt 0.125000 0.312500
vt 0.093750 0.750000
vt 0.093750 0.250000
vt 0.125000 0.687500
vt 0.062500 0.812500
vt 0.093750 0.812500
vt 0.093750 0.312500
vt 0.062500 0.375000
vt 0.062500 0.750000
vt 0.062500 0.250000
vt 0.093750 0.687500
vt 0.093750 0.187500
vt 0.062500 0.625000
vt 0.062500 0.125000
vt 0.093750 0.500000
vt 0.062500 0.562500
vt 0.062500 0.937500
vt 0.078125 1.000000
vt 0.078125 0.000000
vt 0.062500 0.062500
vt 0.062500 0.437500
vt 0.062500 0.875000
vt 0.031250 0.625000
vt 0.031250 0.125000
vt 0.062500 0.500000
vt 0.031250 0.562500
vt 0.031250 0.937500
vt 0.046875 1.000000
vt 0.046875 0.000000
vt 0.031250 0.062500
vt 0.031250 0.437500
vt 0.031250 0.875000
vt 0.031250 0.375000
vt 0.062500 0.312500
vt 0.031250 0.750000
vt 0.031250 0.250000
vt 0.062500 0.687500
vt 0.062500 0.187500
vt 0.031250 0.312500
vt 0.000000 0.375000
vt 0.000000 0.750000
vt 0.031250 0.812500
vt 0.000000 0.250000
vt 0.031250 0.687500
vt 0.031250 0.187500
vt 0.000000 0.625000
vt 0.000000 0.125000
vt 0.031250 0.500000
vt 0.000000 0.562500
vt 0.000000 0.937500
vt 0.015625 1.000000
vt 0.015625 0.000000
vt 0.000000 0.062500
vt 0.000000 0.437500
vt 0.000000 0.875000
vt 0.968750 0.062500
vt 1.000000 0.125000
vt 1.000000 0.062500
vt 1.000000 0.500000
vt 0.968750 0.562500
vt 1.000000 0.562500
vt 1.000000 0.937500
vt 0.968750 0.937500
vt 0.984375 1.000000
vt 0.984375 0.000000
vt 0.968750 0.437500
vt 1.000000 0.437500
vt 1.000000 0.875000
vt 0.968750 0.375000
vt 1.000000 0.375000
vt 1.000000 0.812500
vt 0.968750 0.875000
vt 1.000000 0.312500
vt 0.968750 0.750000
vt 1.000000 0.750000
vt 0.968750 0.250000
vt 1.000000 0.250000
vt 1.000000 0.687500
vt 1.000000 0.187500
vt 0.968750 0.625000
vt 1.000000 0.625000
vt 0.968750 0.125000
vt 0.937500 0.250000
vt 0.968750 0.312500
vt 0.968750 0.687500
vt 0.937500 0.750000
vt 0.968750 0.187500
vt 0.937500 0.625000
vt 0.937500 0.125000
vt 0.937500 0.062500
vt 0.968750 0.500000
vt 0.937500 0.562500
vt 0.937500 0.937500
vt 0.953125 1.000000
vt 0.953125 0.000000
vt 0.937500 0.437500
vt 0.937500 0.375000
vt 0.968750 0.812500
vt 0.937500 0.875000
vt 0.906250 0.937500
vt 0.921875 1.000000
vt 0.921875 0.000000
vt 0.906250 0.062500
vt 0.906250 0.437500
vt 0.937500 0.500000
vt 0.906250 0.875000
vt 0.906250 0.375000
vt 0.937500 0.812500
vt 0.937500 0.312500
vt 0.906250 0.750000
vt 0.906250 0.250000
vt 0.937500 0.687500
vt 0.937500 0.187500
vt 0.906250 0.625000
vt 0.906250 0.125000
vt 0.906250 0.562500
vt 0.906250 0.687500
vt 0.875000 0.750000
vt 0.906250 0.187500
vt 0.875000 0.250000
vt 0.875000 0.625000
vt 0.875000 0.125000
vt 0.875000 0.062500
vt 0.906250 0.500000
vt 0.875000 0.562500
vt 0.875000 0.937500
vt 0.890625 1.000000
vt 0.890625 0.000000
vt 0.875000 0.437500
vt 0.875000 0.875000
vt 0.875000 0.375000
vt 0.906250 0.812500
vt 0.906250 0.312500
vt 0.843750 0.437500
vt 0.875000 0.500000
vt 0.843750 0.875000
vt 0.843750 0.375000
vt 0.875000 0.812500
vt 0.875000 0.312500
vt 0.843750 0.750000
vt 0.843750 0.250000
vt 0.875000 0.687500
vt 0.875000 0.187500
vt 0.843750 0.625000
vt 0.843750 0.125000
vt 0.843750 0.562500
vt 0.843750 0.937500
vt 0.859375 1.000000
vt 0.859375 0.000000
vt 0.843750 0.062500
vt 0.843750 0.187500
vt 0.812500 0.250000
vt 0.812500 0.625000
vt 0.843750 0.687500
vt 0.812500 0.125000
vt 0.812500 0.062500
vt 0.843750 0.500000
vt 0.812500 0.562500
vt 0.812500 0.937500
vt 0.828125 1.000000
vt 0.828125 0.000000
vt 0.812500 0.437500
vt 0.812500 0.375000
vt 0.843750 0.812500
vt 0.812500 0.875000
vt 0.843750 0.312500
vt 0.812500 0.750000
vt 0.781250 0.875000
vt 0.781250 0.375000
vt 0.812500 0.812500
vt 0.812500 0.312500
vt 0.781250 0.750000
vt 0.781250 0.250000
vt 0.812500 0.687500
vt 0.812500 0.187500
vt 0.781250 0.625000
vt 0.781250 0.125000
vt 0.812500 0.500000
vt 0.781250 0.562500
vt 0.781250 0.937500
vt 0.796875 1.000000
vt 0.796875 0.000000
vt 0.781250 0.062500
vt 0.781250 0.437500
vt 0.781250 0.687500
vt 0.781250 0.187500
vt 0.781250 0.500000
vt 0.765625 1.000000
vt 0.765625 0.000000
vt 0.781250 0.812500
vt 0.781250 0.312500
vt 0.000000 0.312500
vt 0.000000 0.812500
vt 0.000000 0.687500
vt 0.000000 0.187500
vt 0.000000 0.500000
s 1
usemtl マテリアル.002
f 19/1/1 479/2/2 480/3/3
f 477/4/4 11/5/5 2/6/6
f 20/7/7 480/3/3 481/8/8
f 3/9/9 12/10/10 477/4/4
f 21/11/11 481/8/8 482/12/12
f 14/13/13 3/9/9 4/14/14
f 474/15/15 7/16/16 82/17/17
f 308/18/18 21/11/11 482/12/12
f 15/19/19 4/14/14 5/20/20
f 475/21/21 7/16/16 474/15/15
f 16/22/22 5/20/20 478/23/23
f 1/24/24 8/25/25 475/21/21
f 17/26/26 478/23/23 6/27/27
f 476/28/28 9/29/29 1/24/24
f 479/2/2 17/26/26 6/27/27
f 11/5/5 476/28/28 2/6/6
f 18/30/30 32/31/31 17/26/26
f 26/32/32 10/33/33 11/5/5
f 19/1/1 33/34/34 18/30/30
f 27/35/35 11/5/5 12/10/10
f 20/7/7 34/36/36 19/1/1
f 13/37/37 27/35/35 12/10/10
f 36/38/38 20/7/7 21/11/11
f 29/39/39 13/37/37 14/13/13
f 7/16/16 22/40/40 82/41/17
f 308/42/18 36/38/38 21/11/11
f 30/43/41 14/13/13 15/19/19
f 23/44/42 7/16/16 8/25/25
f 31/45/43 15/19/19 16/22/22
f 24/46/44 8/25/25 9/29/29
f 17/26/26 31/45/43 16/22/22
f 25/47/45 9/29/29 10/33/33
f 22/40/40 37/48/46 82/49/17
f 308/50/18 51/51/47 36/38/38
f 45/52/48 29/39/39 30/43/41
f 38/53/49 22/40/40 23/44/42
f 46/54/50 30/43/41 31/45/43
f 39/55/51 23/44/42 24/46/44
f 32/31/31 46/54/50 31/45/43
f 40/56/52 24/46/44 25/47/45
f 33/34/34 47/57/53 32/31/31
f 41/58/54 25/47/45 26/32/32
f 34/36/36 48/59/55 33/34/34
f 42/60/56 26/32/32 27/35/35
f 35/61/57 49/62/58 34/36/36
f 28/63/59 42/60/56 27/35/35
f 36/38/38 50/64/60 35/61/57
f 29/39/39 43/65/61 28/63/59
f 41/58/54 55/66/62 40/56/52
f 49/62/58 63/67/63 48/59/55
f 57/68/64 41/58/54 42/60/56
f 50/64/60 64/69/65 49/62/58
f 43/65/61 57/68/64 42/60/56
f 51/51/47 65/70/66 50/64/60
f 44/71/67 58/72/68 43/65/61
f 37/48/46 52/73/69 82/74/17
f 308/75/18 66/76/70 51/51/47
f 60/77/71 44/71/67 45/52/48
f 53/78/72 37/48/46 38/53/49
f 61/79/73 45/52/48 46/54/50
f 54/80/74 38/53/49 39/55/51
f 47/57/53 61/79/73 46/54/50
f 55/66/62 39/55/51 40/56/52
f 63/67/63 47/57/53 48/59/55
f 75/81/75 59/82/76 60/77/71
f 53/78/72 67/83/77 52/73/69
f 76/84/78 60/77/71 61/79/73
f 54/80/74 68/85/79 53/78/72
f 62/86/80 76/84/78 61/79/73
f 70/87/81 54/80/74 55/66/62
f 78/88/82 62/86/80 63/67/63
f 56/89/83 70/87/81 55/66/62
f 64/69/65 78/88/82 63/67/63
f 72/90/84 56/89/83 57/68/64
f 80/91/85 64/69/65 65/70/66
f 58/72/68 72/90/84 57/68/64
f 81/92/86 65/70/66 66/76/70
f 59/82/76 73/93/87 58/72/68
f 52/73/69 67/83/77 82/94/17
f 308/95/18 81/92/86 66/76/70
f 79/96/88 94/97/89 78/88/82
f 88/98/90 71/99/91 72/90/84
f 80/91/85 95/100/92 79/96/88
f 73/93/87 88/98/90 72/90/84
f 81/92/86 96/101/93 80/91/85
f 74/102/94 89/103/95 73/93/87
f 67/83/77 83/104/96 82/105/17
f 308/106/18 97/107/97 81/92/86
f 91/108/98 74/102/94 75/81/75
f 84/109/99 67/83/77 68/85/79
f 92/110/100 75/81/75 76/84/78
f 85/111/101 68/85/79 69/112/102
f 77/113/103 92/110/100 76/84/78
f 86/114/104 69/112/102 70/87/81
f 94/97/89 77/113/103 78/88/82
f 71/99/91 86/114/104 70/87/81
f 107/115/105 91/108/98 92/110/100
f 85/111/101 99/116/106 84/109/99
f 93/117/107 107/115/105 92/110/100
f 101/118/108 85/111/101 86/114/104
f 109/119/109 93/117/107 94/97/89
f 87/120/110 101/118/108 86/114/104
f 95/100/92 109/119/109 94/97/89
f 103/121/111 87/120/110 88/98/90
f 111/122/112 95/100/92 96/101/93
f 89/103/95 103/121/111 88/98/90
f 112/123/113 96/101/93 97/107/97
f 90/124/114 104/125/115 89/103/95
f 83/104/96 98/126/116 82/127/17
f 308/128/18 112/123/113 97/107/97
f 106/129/117 90/124/114 91/108/98
f 99/116/106 83/104/96 84/109/99
f 111/122/112 125/130/118 110/131/119
f 104/125/115 118/132/120 103/121/111
f 127/133/121 111/122/112 112/123/113
f 105/134/122 119/135/123 104/125/115
f 98/126/116 113/136/124 82/137/17
f 308/138/18 127/133/121 112/123/113
f 121/139/125 105/134/122 106/129/117
f 114/140/126 98/126/116 99/116/106
f 122/141/127 106/129/117 107/115/105
f 115/142/128 99/116/106 100/143/129
f 108/144/130 122/141/127 107/115/105
f 116/145/131 100/143/129 101/118/108
f 124/146/132 108/144/130 109/119/109
f 102/147/133 116/145/131 101/118/108
f 110/131/119 124/146/132 109/119/109
f 118/132/120 102/147/133 103/121/111
f 115/142/128 129/148/134 114/140/126
f 123/149/135 137/150/136 122/141/127
f 131/151/137 115/142/128 116/145/131
f 139/152/138 123/149/135 124/146/132
f 117/153/139 131/151/137 116/145/131
f 125/130/118 139/152/138 124/146/132
f 133/154/140 117/153/139 118/132/120
f 141/155/141 125/130/118 126/156/142
f 119/135/123 133/154/140 118/132/120
f 142/157/143 126/156/142 127/133/121
f 120/158/144 134/159/145 119/135/123
f 113/136/124 128/160/146 82/161/17
f 308/162/18 142/157/143 127/133/121
f 136/163/147 120/158/144 121/139/125
f 114/140/126 128/160/146 113/136/124
f 137/150/136 121/139/125 122/141/127
f 134/159/145 148/164/148 133/154/140
f 157/165/149 141/155/141 142/157/143
f 135/166/150 149/167/151 134/159/145
f 128/160/146 143/168/152 82/169/17
f 308/170/18 157/165/149 142/157/143
f 151/171/153 135/166/150 136/163/147
f 144/172/154 128/160/146 129/148/134
f 152/173/155 136/163/147 137/150/136
f 145/174/156 129/148/134 130/175/157
f 138/176/158 152/173/155 137/150/136
f 146/177/159 130/175/157 131/151/137
f 154/178/160 138/176/158 139/152/138
f 132/179/161 146/177/159 131/151/137
f 140/180/162 154/178/160 139/152/138
f 148/164/148 132/179/161 133/154/140
f 141/155/141 155/181/163 140/180/162
f 153/182/164 167/183/165 152/173/155
f 161/184/166 145/174/156 146/177/159
f 169/185/167 153/182/164 154/178/160
f 147/186/168 161/184/166 146/177/159
f 155/181/163 169/185/167 154/178/160
f 163/187/169 147/186/168 148/164/148
f 156/188/170 170/189/171 155/181/163
f 149/167/151 163/187/169 148/164/148
f 157/165/149 171/190/172 156/188/170
f 150/191/173 164/192/174 149/167/151
f 143/168/152 158/193/175 82/194/17
f 308/195/18 172/196/176 157/165/149
f 166/197/177 150/191/173 151/171/153
f 159/198/178 143/168/152 144/172/154
f 167/183/165 151/171/153 152/173/155
f 160/199/179 144/172/154 145/174/156
f 172/196/176 186/200/180 171/190/172
f 165/201/181 179/202/182 164/192/174
f 158/193/175 173/203/183 82/204/17
f 308/205/18 187/206/184 172/196/176
f 181/207/185 165/201/181 166/197/177
f 174/208/186 158/193/175 159/198/178
f 182/209/187 166/197/177 167/183/165
f 175/210/188 159/198/178 160/199/179
f 168/211/189 182/209/187 167/183/165
f 176/212/190 160/199/179 161/184/166
f 184/213/191 168/211/189 169/185/167
f 162/214/192 176/212/190 161/184/166
f 170/189/171 184/213/191 169/185/167
f 178/215/193 162/214/192 163/187/169
f 171/190/172 185/216/194 170/189/171
f 164/192/174 178/215/193 163/187/169
f 191/217/195 175/210/188 176/212/190
f 199/218/196 183/219/197 184/213/191
f 177/220/198 191/217/195 176/212/190
f 185/216/194 199/218/196 184/213/191
f 193/221/199 177/220/198 178/215/193
f 201/222/200 185/216/194 186/200/180
f 179/202/182 193/221/199 178/215/193
f 202/223/201 186/200/180 187/206/184
f 180/224/202 194/225/203 179/202/182
f 173/203/183 188/226/204 82/227/17
f 308/228/18 202/223/201 187/206/184
f 196/229/205 180/224/202 181/207/185
f 174/208/186 188/226/204 173/203/183
f 197/230/206 181/207/185 182/209/187
f 175/210/188 189/231/207 174/208/186
f 183/219/197 197/230/206 182/209/187
f 195/232/208 209/233/209 194/225/203
f 188/226/204 203/234/210 82/235/17
f 308/236/18 217/237/211 202/223/201
f 211/238/212 195/232/208 196/229/205
f 204/239/213 188/226/204 189/231/207
f 212/240/214 196/229/205 197/230/206
f 205/241/215 189/231/207 190/242/216
f 198/243/217 212/240/214 197/230/206
f 206/244/218 190/242/216 191/217/195
f 214/245/219 198/243/217 199/218/196
f 192/246/220 206/244/218 191/217/195
f 200/247/221 214/245/219 199/218/196
f 208/248/222 192/246/220 193/221/199
f 201/222/200 215/249/223 200/247/221
f 194/225/203 208/248/222 193/221/199
f 202/223/201 216/250/224 201/222/200
f 229/251/225 213/252/226 214/245/219
f 207/253/227 221/254/228 206/244/218
f 215/249/223 229/251/225 214/245/219
f 223/255/229 207/253/227 208/248/222
f 216/250/224 230/256/230 215/249/223
f 209/233/209 223/255/229 208/248/222
f 217/237/211 231/257/231 216/250/224
f 210/258/232 224/259/233 209/233/209
f 203/234/210 218/260/234 82/261/17
f 308/262/18 232/263/235 217/237/211
f 226/264/236 210/258/232 211/238/212
f 219/265/237 203/234/210 204/239/213
f 227/266/238 211/238/212 212/240/214
f 220/267/239 204/239/213 205/241/215
f 213/252/226 227/266/238 212/240/214
f 221/254/228 205/241/215 206/244/218
f 308/268/18 247/269/240 232/263/235
f 241/270/241 225/271/242 226/264/236
f 219/265/237 233/272/243 218/260/234
f 242/273/244 226/264/236 227/266/238
f 235/274/245 219/265/237 220/267/239
f 228/275/246 242/273/244 227/266/238
f 236/276/247 220/267/239 221/254/228
f 244/277/248 228/275/246 229/251/225
f 222/278/249 236/276/247 221/254/228
f 230/256/230 244/277/248 229/251/225
f 238/279/250 222/278/249 223/255/229
f 231/257/231 245/280/251 230/256/230
f 224/259/233 238/279/250 223/255/229
f 247/269/240 231/257/231 232/263/235
f 225/271/242 239/281/252 224/259/233
f 218/260/234 233/272/243 82/282/17
f 245/280/251 259/283/253 244/277/248
f 253/284/254 237/285/255 238/279/250
f 261/286/256 245/280/251 246/287/257
f 239/281/252 253/284/254 238/279/250
f 262/288/258 246/287/257 247/269/240
f 240/289/259 254/290/260 239/281/252
f 233/272/243 248/291/261 82/292/17
f 308/293/18 262/288/258 247/269/240
f 256/294/262 240/289/259 241/270/241
f 234/295/263 248/291/261 233/272/243
f 257/296/264 241/270/241 242/273/244
f 235/274/245 249/297/265 234/295/263
f 243/298/266 257/296/264 242/273/244
f 251/299/267 235/274/245 236/276/247
f 259/283/253 243/298/266 244/277/248
f 237/285/255 251/299/267 236/276/247
f 249/297/265 263/300/268 248/291/261
f 272/301/269 256/294/262 257/296/264
f 265/302/270 249/297/265 250/303/271
f 258/304/272 272/301/269 257/296/264
f 266/305/273 250/303/271 251/299/267
f 274/306/274 258/304/272 259/283/253
f 252/307/275 266/305/273 251/299/267
f 260/308/276 274/306/274 259/283/253
f 268/309/277 252/307/275 253/284/254
f 261/286/256 275/310/278 260/308/276
f 254/290/260 268/309/277 253/284/254
f 277/311/279 261/286/256 262/288/258
f 255/312/280 269/313/281 254/290/260
f 248/291/261 263/300/268 82/314/17
f 308/315/18 277/311/279 262/288/258
f 271/316/282 255/312/280 256/294/262
f 283/317/283 267/318/284 268/309/277
f 291/319/285 275/310/278 276/320/286
f 269/313/281 283/317/283 268/309/277
f 292/321/287 276/320/286 277/311/279
f 270/322/288 284/323/289 269/313/281
f 263/300/268 278/324/290 82/325/17
f 308/326/18 292/321/287 277/311/279
f 286/327/291 270/322/288 271/316/282
f 279/328/292 263/300/268 264/329/293
f 287/330/294 271/316/282 272/301/269
f 280/331/295 264/329/293 265/302/270
f 273/332/296 287/330/294 272/301/269
f 281/333/297 265/302/270 266/305/273
f 289/334/298 273/332/296 274/306/274
f 267/318/284 281/333/297 266/305/273
f 275/310/278 289/334/298 274/306/274
f 302/335/299 286/327/291 287/330/294
f 280/331/295 294/336/300 279/328/292
f 288/337/301 302/335/299 287/330/294
f 296/338/302 280/331/295 281/333/297
f 304/339/303 288/337/301 289/334/298
f 282/340/304 296/338/302 281/333/297
f 290/341/305 304/339/303 289/334/298
f 298/342/306 282/340/304 283/317/283
f 306/343/307 290/341/305 291/319/285
f 284/323/289 298/342/306 283/317/283
f 292/321/287 306/343/307 291/319/285
f 285/344/308 299/345/309 284/323/289
f 278/324/290 293/346/310 82/347/17
f 308/348/18 307/349/311 292/321/287
f 301/350/312 285/344/308 286/327/291
f 294/336/300 278/324/290 279/328/292
f 322/351/313 305/352/314 306/343/307
f 299/345/309 314/353/315 298/342/306
f 323/354/316 306/343/307 307/349/311
f 300/355/317 315/356/318 299/345/309
f 293/346/310 309/357/319 82/358/17
f 308/359/18 323/354/316 307/349/311
f 317/360/320 300/355/317 301/350/312
f 294/336/300 309/357/319 293/346/310
f 318/361/321 301/350/312 302/335/299
f 295/362/322 310/363/323 294/336/300
f 303/364/324 318/361/321 302/335/299
f 312/365/325 295/362/322 296/338/302
f 320/366/326 303/364/324 304/339/303
f 297/367/327 312/365/325 296/338/302
f 305/352/314 320/366/326 304/339/303
f 314/353/315 297/367/327 298/342/306
f 326/368/328 310/363/323 311/369/329
f 319/370/330 333/371/331 318/361/321
f 327/372/332 311/369/329 312/365/325
f 335/373/333 319/370/330 320/366/326
f 313/374/334 327/372/332 312/365/325
f 321/375/335 335/373/333 320/366/326
f 329/376/336 313/374/334 314/353/315
f 337/377/337 321/375/335 322/351/313
f 315/356/318 329/376/336 314/353/315
f 323/354/316 337/377/337 322/351/313
f 316/378/338 330/379/339 315/356/318
f 309/357/319 324/380/340 82/381/17
f 308/382/18 338/383/341 323/354/316
f 332/384/342 316/378/338 317/360/320
f 325/385/343 309/357/319 310/363/323
f 333/371/331 317/360/320 318/361/321
f 330/379/339 344/386/344 329/376/336
f 338/383/341 352/387/345 337/377/337
f 331/388/346 345/389/347 330/379/339
f 324/380/340 339/390/348 82/391/17
f 308/392/18 353/393/349 338/383/341
f 347/394/350 331/388/346 332/384/342
f 340/395/351 324/380/340 325/385/343
f 348/396/352 332/384/342 333/371/331
f 326/368/328 340/395/351 325/385/343
f 334/397/353 348/396/352 333/371/331
f 342/398/354 326/368/328 327/372/332
f 350/399/355 334/397/353 335/373/333
f 328/400/356 342/398/354 327/372/332
f 336/401/357 350/399/355 335/373/333
f 344/386/344 328/400/356 329/376/336
f 352/387/345 336/401/357 337/377/337
f 349/402/358 363/403/359 348/396/352
f 357/404/360 341/405/361 342/398/354
f 365/406/362 349/402/358 350/399/355
f 343/407/363 357/404/360 342/398/354
f 351/408/364 365/406/362 350/399/355
f 359/409/365 343/407/363 344/386/344
f 367/410/366 351/408/364 352/387/345
f 345/389/347 359/409/365 344/386/344
f 353/393/349 367/410/366 352/387/345
f 346/411/367 360/412/368 345/389/347
f 339/390/348 354/413/369 82/414/17
f 308/415/18 368/416/370 353/393/349
f 362/417/371 346/411/367 347/394/350
f 355/418/372 339/390/348 340/395/351
f 363/403/359 347/394/350 348/396/352
f 341/405/361 355/418/372 340/395/351
f 383/419/373 367/420/366 368/421/370
f 361/422/374 375/423/375 360/424/368
f 354/425/369 369/426/376 82/427/17
f 308/428/18 383/419/373 368/421/370
f 377/429/377 361/422/374 362/430/371
f 355/431/372 369/426/376 354/425/369
f 378/432/378 362/430/371 363/433/359
f 356/434/379 370/435/380 355/431/372
f 364/436/381 378/432/378 363/433/359
f 372/437/382 356/434/379 357/438/360
f 380/439/383 364/436/381 365/440/362
f 358/441/384 372/437/382 357/438/360
f 366/442/385 380/439/383 365/440/362
f 374/443/386 358/441/384 359/444/365
f 382/445/387 366/442/385 367/420/366
f 360/424/368 374/443/386 359/444/365
f 395/446/388 379/447/389 380/439/383
f 373/448/390 387/449/391 372/437/382
f 381/450/392 395/446/388 380/439/383
f 389/451/393 373/448/390 374/443/386
f 397/452/394 381/450/392 382/445/387
f 375/423/375 389/451/393 374/443/386
f 398/453/395 382/445/387 383/419/373
f 376/454/396 390/455/397 375/423/375
f 369/426/376 384/456/398 82/457/17
f 308/458/18 398/453/395 383/419/373
f 392/459/399 376/454/396 377/429/377
f 370/435/380 384/456/398 369/426/376
f 393/460/400 377/429/377 378/432/378
f 371/461/401 385/462/402 370/435/380
f 379/447/389 393/460/400 378/432/378
f 387/449/391 371/461/401 372/437/382
f 384/456/398 399/463/403 82/464/17
f 308/465/18 413/466/404 398/453/395
f 407/467/405 391/468/406 392/459/399
f 400/469/407 384/456/398 385/462/402
f 408/470/408 392/459/399 393/460/400
f 386/471/409 400/469/407 385/462/402
f 394/472/410 408/470/408 393/460/400
f 402/473/411 386/471/409 387/449/391
f 410/474/412 394/472/410 395/446/388
f 388/475/413 402/473/411 387/449/391
f 396/476/414 410/474/412 395/446/388
f 404/477/415 388/475/413 389/451/393
f 412/478/416 396/476/414 397/452/394
f 390/455/397 404/477/415 389/451/393
f 398/453/395 412/478/416 397/452/394
f 391/468/406 405/479/417 390/455/397
f 403/480/418 417/481/419 402/473/411
f 411/482/420 425/483/421 410/474/412
f 419/484/422 403/480/418 404/477/415
f 427/485/423 411/482/420 412/478/416
f 405/479/417 419/484/422 404/477/415
f 428/486/424 412/478/416 413/466/404
f 406/487/425 420/488/426 405/479/417
f 399/463/403 414/489/427 82/490/17
f 308/491/18 428/486/424 413/466/404
f 422/492/428 406/487/425 407/467/405
f 415/493/429 399/463/403 400/469/407
f 423/494/430 407/467/405 408/470/408
f 401/495/431 415/493/429 400/469/407
f 409/496/432 423/494/430 408/470/408
f 417/481/419 401/495/431 402/473/411
f 425/483/421 409/496/432 410/474/412
f 437/497/433 421/498/434 422/492/428
f 430/499/435 414/489/427 415/493/429
f 438/500/436 422/492/428 423/494/430
f 416/501/437 430/499/435 415/493/429
f 424/502/438 438/500/436 423/494/430
f 432/503/439 416/501/437 417/481/419
f 440/504/440 424/502/438 425/483/421
f 418/505/441 432/503/439 417/481/419
f 426/506/442 440/504/440 425/483/421
f 434/507/443 418/505/441 419/484/422
f 442/508/444 426/506/442 427/485/423
f 420/488/426 434/507/443 419/484/422
f 428/486/424 442/508/444 427/485/423
f 421/498/434 435/509/445 420/488/426
f 414/489/427 429/510/446 82/511/17
f 308/512/18 443/513/447 428/486/424
f 441/514/448 455/515/449 440/504/440
f 449/516/450 433/517/451 434/507/443
f 457/518/452 441/514/448 442/508/444
f 435/509/445 449/516/450 434/507/443
f 458/519/453 442/508/444 443/513/447
f 436/520/454 450/521/455 435/509/445
f 429/510/446 444/522/456 82/523/17
f 308/524/18 458/519/453 443/513/447
f 452/525/457 436/520/454 437/497/433
f 430/499/435 444/522/456 429/510/446
f 453/526/458 437/497/433 438/500/436
f 431/527/459 445/528/460 430/499/435
f 439/529/461 453/526/458 438/500/436
f 447/530/462 431/527/459 432/503/439
f 455/515/449 439/529/461 440/504/440
f 433/517/451 447/530/462 432/503/439
f 460/531/463 444/522/456 445/528/460
f 468/532/464 452/525/457 453/526/458
f 446/533/465 460/531/463 445/528/460
f 454/534/466 468/532/464 453/526/458
f 462/535/467 446/533/465 447/530/462
f 470/536/468 454/534/466 455/515/449
f 448/537/469 462/535/467 447/530/462
f 456/538/470 470/536/468 455/515/449
f 464/539/471 448/537/469 449/516/450
f 472/540/472 456/538/470 457/518/452
f 450/521/455 464/539/471 449/516/450
f 458/519/453 472/540/472 457/518/452
f 451/541/473 465/542/474 450/521/455
f 444/522/456 459/543/475 82/544/17
f 308/545/18 473/546/476 458/519/453
f 467/547/477 451/541/473 452/525/457
f 464/539/471 2/6/6 463/548/478
f 481/8/8 471/549/479 472/540/472
f 465/542/474 477/4/4 464/539/471
f 482/12/12 472/540/472 473/546/476
f 466/550/480 3/9/9 465/542/474
f 459/543/475 474/15/15 82/551/17
f 308/552/18 482/12/12 473/546/476
f 5/20/20 466/550/480 467/547/477
f 475/21/21 459/543/475 460/531/463
f 478/23/23 467/547/477 468/532/464
f 461/553/481 475/21/21 460/531/463
f 6/27/27 468/532/464 469/554/482
f 462/535/467 1/24/24 461/553/481
f 479/2/2 469/554/482 470/536/468
f 463/548/478 476/28/28 462/535/467
f 471/549/479 479/2/2 470/536/468
f 19/1/1 18/30/30 479/2/2
f 477/4/4 12/10/10 11/5/5
f 20/7/7 19/1/1 480/3/3
f 3/9/9 13/37/37 12/10/10
f 21/11/11 20/7/7 481/8/8
f 14/13/13 13/37/37 3/9/9
f 15/19/19 14/13/13 4/14/14
f 475/21/21 8/25/25 7/16/16
f 16/22/22 15/19/19 5/20/20
f 1/24/24 9/29/29 8/25/25
f 17/26/26 16/22/22 478/23/23
f 476/28/28 10/33/33 9/29/29
f 479/2/2 18/30/30 17/26/26
f 11/5/5 10/33/33 476/28/28
f 18/30/30 33/34/34 32/31/31
f 26/32/32 25/47/45 10/33/33
f 19/1/1 34/36/36 33/34/34
f 27/35/35 26/32/32 11/5/5
f 20/7/7 35/61/57 34/36/36
f 13/37/37 28/63/59 27/35/35
f 36/38/38 35/61/57 20/7/7
f 29/39/39 28/63/59 13/37/37
f 30/43/41 29/39/39 14/13/13
f 23/44/42 22/40/40 7/16/16
f 31/45/43 30/43/41 15/19/19
f 24/46/44 23/44/42 8/25/25
f 17/26/26 32/31/31 31/45/43
f 25/47/45 24/46/44 9/29/29
f 45/52/48 44/71/67 29/39/39
f 38/53/49 37/48/46 22/40/40
f 46/54/50 45/52/48 30/43/41
f 39/55/51 38/53/49 23/44/42
f 32/31/31 47/57/53 46/54/50
f 40/56/52 39/55/51 24/46/44
f 33/34/34 48/59/55 47/57/53
f 41/58/54 40/56/52 25/47/45
f 34/36/36 49/62/58 48/59/55
f 42/60/56 41/58/54 26/32/32
f 35/61/57 50/64/60 49/62/58
f 28/63/59 43/65/61 42/60/56
f 36/38/38 51/51/47 50/64/60
f 29/39/39 44/71/67 43/65/61
f 41/58/54 56/89/83 55/66/62
f 49/62/58 64/69/65 63/67/63
f 57/68/64 56/89/83 41/58/54
f 50/64/60 65/70/66 64/69/65
f 43/65/61 58/72/68 57/68/64
f 51/51/47 66/76/70 65/70/66
f 44/71/67 59/82/76 58/72/68
f 60/77/71 59/82/76 44/71/67
f 53/78/72 52/73/69 37/48/46
f 61/79/73 60/77/71 45/52/48
f 54/80/74 53/78/72 38/53/49
f 47/57/53 62/86/80 61/79/73
f 55/66/62 54/80/74 39/55/51
f 63/67/63 62/86/80 47/57/53
f 75/81/75 74/102/94 59/82/76
f 53/78/72 68/85/79 67/83/77
f 76/84/78 75/81/75 60/77/71
f 54/80/74 69/112/102 68/85/79
f 62/86/80 77/113/103 76/84/78
f 70/87/81 69/112/102 54/80/74
f 78/88/82 77/113/103 62/86/80
f 56/89/83 71/99/91 70/87/81
f 64/69/65 79/96/88 78/88/82
f 72/90/84 71/99/91 56/89/83
f 80/91/85 79/96/88 64/69/65
f 58/72/68 73/93/87 72/90/84
f 81/92/86 80/91/85 65/70/66
f 59/82/76 74/102/94 73/93/87
f 79/96/88 95/100/92 94/97/89
f 88/98/90 87/120/110 71/99/91
f 80/91/85 96/101/93 95/100/92
f 73/93/87 89/103/95 88/98/90
f 81/92/86 97/107/97 96/101/93
f 74/102/94 90/124/114 89/103/95
f 91/108/98 90/124/114 74/102/94
f 84/109/99 83/104/96 67/83/77
f 92/110/100 91/108/98 75/81/75
f 85/111/101 84/109/99 68/85/79
f 77/113/103 93/117/107 92/110/100
f 86/114/104 85/111/101 69/112/102
f 94/97/89 93/117/107 77/113/103
f 71/99/91 87/120/110 86/114/104
f 107/115/105 106/129/117 91/108/98
f 85/111/101 100/143/129 99/116/106
f 93/117/107 108/144/130 107/115/105
f 101/118/108 100/143/129 85/111/101
f 109/119/109 108/144/130 93/117/107
f 87/120/110 102/147/133 101/118/108
f 95/100/92 110/131/119 109/119/109
f 103/121/111 102/147/133 87/120/110
f 111/122/112 110/131/119 95/100/92
f 89/103/95 104/125/115 103/121/111
f 112/123/113 111/122/112 96/101/93
f 90/124/114 105/134/122 104/125/115
f 106/129/117 105/134/122 90/124/114
f 99/116/106 98/126/116 83/104/96
f 111/122/112 126/156/142 125/130/118
f 104/125/115 119/135/123 118/132/120
f 127/133/121 126/156/142 111/122/112
f 105/134/122 120/158/144 119/135/123
f 121/139/125 120/158/144 105/134/122
f 114/140/126 113/136/124 98/126/116
f 122/141/127 121/139/125 106/129/117
f 115/142/128 114/140/126 99/116/106
f 108/144/130 123/149/135 122/141/127
f 116/145/131 115/142/128 100/143/129
f 124/146/132 123/149/135 108/144/130
f 102/147/133 117/153/139 116/145/131
f 110/131/119 125/130/118 124/146/132
f 118/132/120 117/153/139 102/147/133
f 115/142/128 130/175/157 129/148/134
f 123/149/135 138/176/158 137/150/136
f 131/151/137 130/175/157 115/142/128
f 139/152/138 138/176/158 123/149/135
f 117/153/139 132/179/161 131/151/137
f 125/130/118 140/180/162 139/152/138
f 133/154/140 132/179/161 117/153/139
f 141/155/141 140/180/162 125/130/118
f 119/135/123 134/159/145 133/154/140
f 142/157/143 141/155/141 126/156/142
f 120/158/144 135/166/150 134/159/145
f 136/163/147 135/166/150 120/158/144
f 114/140/126 129/148/134 128/160/146
f 137/150/136 136/163/147 121/139/125
f 134/159/145 149/167/151 148/164/148
f 157/165/149 156/188/170 141/155/141
f 135/166/150 150/191/173 149/167/151
f 151/171/153 150/191/173 135/166/150
f 144/172/154 143/168/152 128/160/146
f 152/173/155 151/171/153 136/163/147
f 145/174/156 144/172/154 129/148/134
f 138/176/158 153/182/164 152/173/155
f 146/177/159 145/174/156 130/175/157
f 154/178/160 153/182/164 138/176/158
f 132/179/161 147/186/168 146/177/159
f 140/180/162 155/181/163 154/178/160
f 148/164/148 147/186/168 132/179/161
f 141/155/141 156/188/170 155/181/163
f 153/182/164 168/211/189 167/183/165
f 161/184/166 160/199/179 145/174/156
f 169/185/167 168/211/189 153/182/164
f 147/186/168 162/214/192 161/184/166
f 155/181/163 170/189/171 169/185/167
f 163/187/169 162/214/192 147/186/168
f 156/188/170 171/190/172 170/189/171
f 149/167/151 164/192/174 163/187/169
f 157/165/149 172/196/176 171/190/172
f 150/191/173 165/201/181 164/192/174
f 166/197/177 165/201/181 150/191/173
f 159/198/178 158/193/175 143/168/152
f 167/183/165 166/197/177 151/171/153
f 160/199/179 159/198/178 144/172/154
f 172/196/176 187/206/184 186/200/180
f 165/201/181 180/224/202 179/202/182
f 181/207/185 180/224/202 165/201/181
f 174/208/186 173/203/183 158/193/175
f 182/209/187 181/207/185 166/197/177
f 175/210/188 174/208/186 159/198/178
f 168/211/189 183/219/197 182/209/187
f 176/212/190 175/210/188 160/199/179
f 184/213/191 183/219/197 168/211/189
f 162/214/192 177/220/198 176/212/190
f 170/189/171 185/216/194 184/213/191
f 178/215/193 177/220/198 162/214/192
f 171/190/172 186/200/180 185/216/194
f 164/192/174 179/202/182 178/215/193
f 191/217/195 190/242/216 175/210/188
f 199/218/196 198/243/217 183/219/197
f 177/220/198 192/246/220 191/217/195
f 185/216/194 200/247/221 199/218/196
f 193/221/199 192/246/220 177/220/198
f 201/222/200 200/247/221 185/216/194
f 179/202/182 194/225/203 193/221/199
f 202/223/201 201/222/200 186/200/180
f 180/224/202 195/232/208 194/225/203
f 196/229/205 195/232/208 180/224/202
f 174/208/186 189/231/207 188/226/204
f 197/230/206 196/229/205 181/207/185
f 175/210/188 190/242/216 189/231/207
f 183/219/197 198/243/217 197/230/206
f 195/232/208 210/258/232 209/233/209
f 211/238/212 210/258/232 195/232/208
f 204/239/213 203/234/210 188/226/204
f 212/240/214 211/238/212 196/229/205
f 205/241/215 204/239/213 189/231/207
f 198/243/217 213/252/226 212/240/214
f 206/244/218 205/241/215 190/242/216
f 214/245/219 213/252/226 198/243/217
f 192/246/220 207/253/227 206/244/218
f 200/247/221 215/249/223 214/245/219
f 208/248/222 207/253/227 192/246/220
f 201/222/200 216/250/224 215/249/223
f 194/225/203 209/233/209 208/248/222
f 202/223/201 217/237/211 216/250/224
f 229/251/225 228/275/246 213/252/226
f 207/253/227 222/278/249 221/254/228
f 215/249/223 230/256/230 229/251/225
f 223/255/229 222/278/249 207/253/227
f 216/250/224 231/257/231 230/256/230
f 209/233/209 224/259/233 223/255/229
f 217/237/211 232/263/235 231/257/231
f 210/258/232 225/271/242 224/259/233
f 226/264/236 225/271/242 210/258/232
f 219/265/237 218/260/234 203/234/210
f 227/266/238 226/264/236 211/238/212
f 220/267/239 219/265/237 204/239/213
f 213/252/226 228/275/246 227/266/238
f 221/254/228 220/267/239 205/241/215
f 241/270/241 240/289/259 225/271/242
f 219/265/237 234/295/263 233/272/243
f 242/273/244 241/270/241 226/264/236
f 235/274/245 234/295/263 219/265/237
f 228/275/246 243/298/266 242/273/244
f 236/276/247 235/274/245 220/267/239
f 244/277/248 243/298/266 228/275/246
f 222/278/249 237/285/255 236/276/247
f 230/256/230 245/280/251 244/277/248
f 238/279/250 237/285/255 222/278/249
f 231/257/231 246/287/257 245/280/251
f 224/259/233 239/281/252 238/279/250
f 247/269/240 246/287/257 231/257/231
f 225/271/242 240/289/259 239/281/252
f 245/280/251 260/308/276 259/283/253
f 253/284/254 252/307/275 237/285/255
f 261/286/256 260/308/276 245/280/251
f 239/281/252 254/290/260 253/284/254
f 262/288/258 261/286/256 246/287/257
f 240/289/259 255/312/280 254/290/260
f 256/294/262 255/312/280 240/289/259
f 234/295/263 249/297/265 248/291/261
f 257/296/264 256/294/262 241/270/241
f 235/274/245 250/303/271 249/297/265
f 243/298/266 258/304/272 257/296/264
f 251/299/267 250/303/271 235/274/245
f 259/283/253 258/304/272 243/298/266
f 237/285/255 252/307/275 251/299/267
f 249/297/265 264/329/293 263/300/268
f 272/301/269 271/316/282 256/294/262
f 265/302/270 264/329/293 249/297/265
f 258/304/272 273/332/296 272/301/269
f 266/305/273 265/302/270 250/303/271
f 274/306/274 273/332/296 258/304/272
f 252/307/275 267/318/284 266/305/273
f 260/308/276 275/310/278 274/306/274
f 268/309/277 267/318/284 252/307/275
f 261/286/256 276/320/286 275/310/278
f 254/290/260 269/313/281 268/309/277
f 277/311/279 276/320/286 261/286/256
f 255/312/280 270/322/288 269/313/281
f 271/316/282 270/322/288 255/312/280
f 283/317/283 282/340/304 267/318/284
f 291/319/285 290/341/305 275/310/278
f 269/313/281 284/323/289 283/317/283
f 292/321/287 291/319/285 276/320/286
f 270/322/288 285/344/308 284/323/289
f 286/327/291 285/344/308 270/322/288
f 279/328/292 278/324/290 263/300/268
f 287/330/294 286/327/291 271/316/282
f 280/331/295 279/328/292 264/329/293
f 273/332/296 288/337/301 287/330/294
f 281/333/297 280/331/295 265/302/270
f 289/334/298 288/337/301 273/332/296
f 267/318/284 282/340/304 281/333/297
f 275/310/278 290/341/305 289/334/298
f 302/335/299 301/350/312 286/327/291
f 280/331/295 295/362/322 294/336/300
f 288/337/301 303/364/324 302/335/299
f 296/338/302 295/362/322 280/331/295
f 304/339/303 303/364/324 288/337/301
f 282/340/304 297/367/327 296/338/302
f 290/341/305 305/352/314 304/339/303
f 298/342/306 297/367/327 282/340/304
f 306/343/307 305/352/314 290/341/305
f 284/323/289 299/345/309 298/342/306
f 292/321/287 307/349/311 306/343/307
f 285/344/308 300/355/317 299/345/309
f 301/350/312 300/355/317 285/344/308
f 294/336/300 293/346/310 278/324/290
f 322/351/313 321/375/335 305/352/314
f 299/345/309 315/356/318 314/353/315
f 323/354/316 322/351/313 306/343/307
f 300/355/317 316/378/338 315/356/318
f 317/360/320 316/378/338 300/355/317
f 294/336/300 310/363/323 309/357/319
f 318/361/321 317/360/320 301/350/312
f 295/362/322 311/369/329 310/363/323
f 303/364/324 319/370/330 318/361/321
f 312/365/325 311/369/329 295/362/322
f 320/366/326 319/370/330 303/364/324
f 297/367/327 313/374/334 312/365/325
f 305/352/314 321/375/335 320/366/326
f 314/353/315 313/374/334 297/367/327
f 326/368/328 325/385/343 310/363/323
f 319/370/330 334/397/353 333/371/331
f 327/372/332 326/368/328 311/369/329
f 335/373/333 334/397/353 319/370/330
f 313/374/334 328/400/356 327/372/332
f 321/375/335 336/401/357 335/373/333
f 329/376/336 328/400/356 313/374/334
f 337/377/337 336/401/357 321/375/335
f 315/356/318 330/379/339 329/376/336
f 323/354/316 338/383/341 337/377/337
f 316/378/338 331/388/346 330/379/339
f 332/384/342 331/388/346 316/378/338
f 325/385/343 324/380/340 309/357/319
f 333/371/331 332/384/342 317/360/320
f 330/379/339 345/389/347 344/386/344
f 338/383/341 353/393/349 352/387/345
f 331/388/346 346/411/367 345/389/347
f 347/394/350 346/411/367 331/388/346
f 340/395/351 339/390/348 324/380/340
f 348/396/352 347/394/350 332/384/342
f 326/368/328 341/405/361 340/395/351
f 334/397/353 349/402/358 348/396/352
f 342/398/354 341/405/361 326/368/328
f 350/399/355 349/402/358 334/397/353
f 328/400/356 343/407/363 342/398/354
f 336/401/357 351/408/364 350/399/355
f 344/386/344 343/407/363 328/400/356
f 352/387/345 351/408/364 336/401/357
f 349/402/358 364/555/381 363/403/359
f 357/404/360 356/556/379 341/405/361
f 365/406/362 364/555/381 349/402/358
f 343/407/363 358/557/384 357/404/360
f 351/408/364 366/558/385 365/406/362
f 359/409/365 358/557/384 343/407/363
f 367/410/366 366/558/385 351/408/364
f 345/389/347 360/412/368 359/409/365
f 353/393/349 368/416/370 367/410/366
f 346/411/367 361/559/374 360/412/368
f 362/417/371 361/559/374 346/411/367
f 355/418/372 354/413/369 339/390/348
f 363/403/359 362/417/371 347/394/350
f 341/405/361 356/556/379 355/418/372
f 383/419/373 382/445/387 367/420/366
f 361/422/374 376/454/396 375/423/375
f 377/429/377 376/454/396 361/422/374
f 355/431/372 370/435/380 369/426/376
f 378/432/378 377/429/377 362/430/371
f 356/434/379 371/461/401 370/435/380
f 364/436/381 379/447/389 378/432/378
f 372/437/382 371/461/401 356/434/379
f 380/439/383 379/447/389 364/436/381
f 358/441/384 373/448/390 372/437/382
f 366/442/385 381/450/392 380/439/383
f 374/443/386 373/448/390 358/441/384
f 382/445/387 381/450/392 366/442/385
f 360/424/368 375/423/375 374/443/386
f 395/446/388 394/472/410 379/447/389
f 373/448/390 388/475/413 387/449/391
f 381/450/392 396/476/414 395/446/388
f 389/451/393 388/475/413 373/448/390
f 397/452/394 396/476/414 381/450/392
f 375/423/375 390/455/397 389/451/393
f 398/453/395 397/452/394 382/445/387
f 376/454/396 391/468/406 390/455/397
f 392/459/399 391/468/406 376/454/396
f 370/435/380 385/462/402 384/456/398
f 393/460/400 392/459/399 377/429/377
f 371/461/401 386/471/409 385/462/402
f 379/447/389 394/472/410 393/460/400
f 387/449/391 386/471/409 371/461/401
f 407/467/405 406/487/425 391/468/406
f 400/469/407 399/463/403 384/456/398
f 408/470/408 407/467/405 392/459/399
f 386/471/409 401/495/431 400/469/407
f 394/472/410 409/496/432 408/470/408
f 402/473/411 401/495/431 386/471/409
f 410/474/412 409/496/432 394/472/410
f 388/475/413 403/480/418 402/473/411
f 396/476/414 411/482/420 410/474/412
f 404/477/415 403/480/418 388/475/413
f 412/478/416 411/482/420 396/476/414
f 390/455/397 405/479/417 404/477/415
f 398/453/395 413/466/404 412/478/416
f 391/468/406 406/487/425 405/479/417
f 403/480/418 418/505/441 417/481/419
f 411/482/420 426/506/442 425/483/421
f 419/484/422 418/505/441 403/480/418
f 427/485/423 426/506/442 411/482/420
f 405/479/417 420/488/426 419/484/422
f 428/486/424 427/485/423 412/478/416
f 406/487/425 421/498/434 420/488/426
f 422/492/428 421/498/434 406/487/425
f 415/493/429 414/489/427 399/463/403
f 423/494/430 422/492/428 407/467/405
f 401/495/431 416/501/437 415/493/429
f 409/496/432 424/502/438 423/494/430
f 417/481/419 416/501/437 401/495/431
f 425/483/421 424/502/438 409/496/432
f 437/497/433 436/520/454 421/498/434
f 430/499/435 429/510/446 414/489/427
f 438/500/436 437/497/433 422/492/428
f 416/501/437 431/527/459 430/499/435
f 424/502/438 439/529/461 438/500/436
f 432/503/439 431/527/459 416/501/437
f 440/504/440 439/529/461 424/502/438
f 418/505/441 433/517/451 432/503/439
f 426/506/442 441/514/448 440/504/440
f 434/507/443 433/517/451 418/505/441
f 442/508/444 441/514/448 426/506/442
f 420/488/426 435/509/445 434/507/443
f 428/486/424 443/513/447 442/508/444
f 421/498/434 436/520/454 435/509/445
f 441/514/448 456/538/470 455/515/449
f 449/516/450 448/537/469 433/517/451
f 457/518/452 456/538/470 441/514/448
f 435/509/445 450/521/455 449/516/450
f 458/519/453 457/518/452 442/508/444
f 436/520/454 451/541/473 450/521/455
f 452/525/457 451/541/473 436/520/454
f 430/499/435 445/528/460 444/522/456
f 453/526/458 452/525/457 437/497/433
f 431/527/459 446/533/465 445/528/460
f 439/529/461 454/534/466 453/526/458
f 447/530/462 446/533/465 431/527/459
f 455/515/449 454/534/466 439/529/461
f 433/517/451 448/537/469 447/530/462
f 460/531/463 459/543/475 444/522/456
f 468/532/464 467/547/477 452/525/457
f 446/533/465 461/553/481 460/531/463
f 454/534/466 469/554/482 468/532/464
f 462/535/467 461/553/481 446/533/465
f 470/536/468 469/554/482 454/534/466
f 448/537/469 463/548/478 462/535/467
f 456/538/470 471/549/479 470/536/468
f 464/539/471 463/548/478 448/537/469
f 472/540/472 471/549/479 456/538/470
f 450/521/455 465/542/474 464/539/471
f 458/519/453 473/546/476 472/540/472
f 451/541/473 466/550/480 465/542/474
f 467/547/477 466/550/480 451/541/473
f 464/539/471 477/4/4 2/6/6
f 481/8/8 480/3/3 471/549/479
f 465/542/474 3/9/9 477/4/4
f 482/12/12 481/8/8 472/540/472
f 466/550/480 4/14/14 3/9/9
f 5/20/20 4/14/14 466/550/480
f 475/21/21 474/15/15 459/543/475
f 478/23/23 5/20/20 467/547/477
f 461/553/481 1/24/24 475/21/21
f 6/27/27 478/23/23 468/532/464
f 462/535/467 476/28/28 1/24/24
f 479/2/2 6/27/27 469/554/482
f 463/548/478 2/6/6 476/28/28
f 471/549/479 480/3/3 479/2/2
