# Blender 4.4.1
# www.blender.org
mtllib block.mtl
o Block_WoodPlanks
v -0.500000 0.500000 0.500000
v -0.500000 0.500000 -0.500000
v -0.500000 -0.500000 0.500000
v -0.500000 -0.500000 -0.500000
v 0.500000 0.500000 0.500000
v 0.500000 0.500000 -0.500000
v 0.500000 -0.500000 0.500000
v 0.500000 -0.500000 -0.500000
v 0.500000 0.500000 -0.000000
v 0.500000 0.500000 -0.062500
v 0.500000 0.500000 -0.250000
v 0.500000 0.500000 -0.312500
v 0.500000 -0.500000 0.437500
v -0.500000 -0.312500 0.500000
v -0.500000 -0.250000 0.500000
v -0.500000 -0.062500 0.500000
v -0.500000 0.000000 0.500000
v -0.500000 0.187500 0.500000
v -0.500000 0.250000 0.500000
v -0.500000 0.437500 0.500000
v -0.500000 0.437500 -0.500000
v -0.500000 0.250000 -0.500000
v -0.500000 0.187500 -0.500000
v -0.500000 -0.000000 -0.500000
v -0.500000 -0.062500 -0.500000
v -0.500000 -0.250000 -0.500000
v -0.500000 -0.312500 -0.500000
v 0.500000 0.437500 0.500000
v 0.500000 0.250000 0.500000
v 0.500000 0.187500 0.500000
v 0.500000 0.000000 0.500000
v 0.500000 -0.062500 0.500000
v 0.500000 -0.250000 0.500000
v 0.500000 -0.312500 0.500000
v 0.500000 -0.312500 -0.500000
v 0.500000 -0.250000 -0.500000
v 0.500000 -0.062500 -0.500000
v 0.500000 -0.000000 -0.500000
v 0.500000 0.187500 -0.500000
v 0.500000 0.250000 -0.500000
v 0.500000 0.437500 -0.500000
v 0.500000 -0.500000 0.250000
v 0.500000 -0.500000 0.187500
v 0.500000 -0.500000 0.000000
v 0.500000 -0.500000 -0.062500
v 0.500000 -0.500000 -0.250000
v 0.500000 -0.500000 -0.312500
v -0.500000 -0.500000 0.437500
v -0.500000 -0.500000 0.250000
v -0.500000 -0.500000 0.187500
v -0.500000 -0.500000 0.000000
v -0.500000 -0.500000 -0.062500
v -0.500000 -0.500000 -0.250000
v -0.500000 -0.500000 -0.312500
v -0.500000 0.500000 -0.312500
v -0.500000 0.500000 -0.250000
v -0.500000 0.500000 -0.062500
v -0.500000 0.500000 -0.000000
v -0.500000 0.500000 0.187500
v -0.500000 0.500000 0.250000
v -0.500000 0.500000 0.437500
v 0.500000 0.500000 0.187500
v 0.500000 0.500000 0.250000
v 0.500000 0.500000 0.437500
v 0.500000 -0.312500 -0.312500
v 0.500000 -0.312500 -0.250000
v 0.500000 -0.312500 -0.062500
v 0.500000 -0.312500 0.000000
v 0.500000 -0.312500 0.187500
v 0.500000 -0.312500 0.250000
v 0.500000 -0.312500 0.437500
v 0.500000 -0.250000 -0.312500
v 0.500000 -0.250000 -0.250000
v 0.500000 -0.250000 -0.062500
v 0.500000 -0.250000 0.000000
v 0.500000 -0.250000 0.187500
v 0.500000 -0.250000 0.250000
v 0.500000 -0.250000 0.437500
v 0.500000 -0.062500 -0.312500
v 0.500000 -0.062500 -0.250000
v 0.500000 -0.062500 -0.062500
v 0.500000 -0.062500 0.000000
v 0.500000 -0.062500 0.187500
v 0.500000 -0.062500 0.250000
v 0.500000 -0.062500 0.437500
v 0.500000 -0.000000 -0.312500
v 0.500000 -0.000000 -0.250000
v 0.500000 -0.000000 -0.062500
v 0.500000 0.000000 -0.000000
v 0.500000 0.000000 0.187500
v 0.500000 0.000000 0.250000
v 0.500000 0.000000 0.437500
v 0.500000 0.187500 -0.312500
v 0.500000 0.187500 -0.250000
v 0.500000 0.187500 -0.062500
v 0.500000 0.187500 -0.000000
v 0.500000 0.187500 0.187500
v 0.500000 0.187500 0.250000
v 0.500000 0.187500 0.437500
v 0.500000 0.250000 -0.312500
v 0.500000 0.250000 -0.250000
v 0.500000 0.250000 -0.062500
v 0.500000 0.250000 -0.000000
v 0.500000 0.250000 0.187500
v 0.500000 0.250000 0.250000
v 0.500000 0.250000 0.437500
v 0.500000 0.437500 -0.312500
v 0.500000 0.437500 -0.250000
v 0.500000 0.437500 -0.062500
v 0.500000 0.437500 -0.000000
v 0.500000 0.437500 0.187500
v 0.500000 0.437500 0.250000
v 0.500000 0.437500 0.437500
v -0.500000 0.437500 -0.312500
v -0.500000 0.437500 -0.250000
v -0.500000 0.437500 -0.062500
v -0.500000 0.437500 -0.000000
v -0.500000 0.437500 0.187500
v -0.500000 0.437500 0.250000
v -0.500000 0.437500 0.437500
v -0.500000 0.250000 -0.312500
v -0.500000 0.250000 -0.250000
v -0.500000 0.250000 -0.062500
v -0.500000 0.250000 -0.000000
v -0.500000 0.250000 0.187500
v -0.500000 0.250000 0.250000
v -0.500000 0.250000 0.437500
v -0.500000 0.187500 -0.312500
v -0.500000 0.187500 -0.250000
v -0.500000 0.187500 -0.062500
v -0.500000 0.187500 -0.000000
v -0.500000 0.187500 0.187500
v -0.500000 0.187500 0.250000
v -0.500000 0.187500 0.437500
v -0.500000 -0.000000 -0.312500
v -0.500000 -0.000000 -0.250000
v -0.500000 -0.000000 -0.062500
v -0.500000 -0.000000 0.000000
v -0.500000 0.000000 0.187500
v -0.500000 0.000000 0.250000
v -0.500000 0.000000 0.437500
v -0.500000 -0.062500 -0.312500
v -0.500000 -0.062500 -0.250000
v -0.500000 -0.062500 -0.062500
v -0.500000 -0.062500 0.000000
v -0.500000 -0.062500 0.187500
v -0.500000 -0.062500 0.250000
v -0.500000 -0.062500 0.437500
v -0.500000 -0.250000 -0.312500
v -0.500000 -0.250000 -0.250000
v -0.500000 -0.250000 -0.062500
v -0.500000 -0.250000 0.000000
v -0.500000 -0.250000 0.187500
v -0.500000 -0.250000 0.250000
v -0.500000 -0.250000 0.437500
v -0.500000 -0.312500 -0.312500
v -0.500000 -0.312500 -0.250000
v -0.500000 -0.312500 -0.062500
v -0.500000 -0.312500 0.000000
v -0.500000 -0.312500 0.187500
v -0.500000 -0.312500 0.250000
v -0.500000 -0.312500 0.437500
v 0.437500 -0.500000 0.500000
v 0.062500 -0.500000 0.500000
v 0.000000 -0.500000 0.500000
v -0.437500 -0.500000 0.500000
v -0.437500 -0.500000 -0.500000
v 0.000000 -0.500000 -0.500000
v 0.062500 -0.500000 -0.500000
v 0.437500 -0.500000 -0.500000
v -0.437500 0.500000 0.500000
v -0.000000 0.500000 0.500000
v 0.062500 0.500000 0.500000
v 0.437500 0.500000 0.500000
v 0.437500 0.500000 -0.500000
v 0.062500 0.500000 -0.500000
v -0.000000 0.500000 -0.500000
v -0.437500 0.500000 -0.500000
v 0.437500 -0.312500 0.500000
v 0.062500 -0.312500 0.500000
v 0.000000 -0.312500 0.500000
v -0.437500 -0.312500 0.500000
v 0.437500 -0.250000 0.500000
v 0.062500 -0.250000 0.500000
v 0.000000 -0.250000 0.500000
v -0.437500 -0.250000 0.500000
v 0.437500 -0.062500 0.500000
v 0.062500 -0.062500 0.500000
v 0.000000 -0.062500 0.500000
v -0.437500 -0.062500 0.500000
v 0.437500 0.000000 0.500000
v 0.062500 0.000000 0.500000
v -0.000000 0.000000 0.500000
v -0.437500 0.000000 0.500000
v 0.437500 0.187500 0.500000
v 0.062500 0.187500 0.500000
v -0.000000 0.187500 0.500000
v -0.437500 0.187500 0.500000
v 0.437500 0.250000 0.500000
v 0.062500 0.250000 0.500000
v -0.000000 0.250000 0.500000
v -0.437500 0.250000 0.500000
v 0.437500 0.437500 0.500000
v 0.062500 0.437500 0.500000
v -0.000000 0.437500 0.500000
v -0.437500 0.437500 0.500000
v -0.437500 -0.312500 -0.500000
v 0.000000 -0.312500 -0.500000
v 0.062500 -0.312500 -0.500000
v 0.437500 -0.312500 -0.500000
v -0.437500 -0.250000 -0.500000
v 0.000000 -0.250000 -0.500000
v 0.062500 -0.250000 -0.500000
v 0.437500 -0.250000 -0.500000
v -0.437500 -0.062500 -0.500000
v 0.000000 -0.062500 -0.500000
v 0.062500 -0.062500 -0.500000
v 0.437500 -0.062500 -0.500000
v -0.437500 -0.000000 -0.500000
v 0.000000 -0.000000 -0.500000
v 0.062500 -0.000000 -0.500000
v 0.437500 -0.000000 -0.500000
v -0.437500 0.187500 -0.500000
v -0.000000 0.187500 -0.500000
v 0.062500 0.187500 -0.500000
v 0.437500 0.187500 -0.500000
v -0.437500 0.250000 -0.500000
v -0.000000 0.250000 -0.500000
v 0.062500 0.250000 -0.500000
v 0.437500 0.250000 -0.500000
v -0.437500 0.437500 -0.500000
v -0.000000 0.437500 -0.500000
v 0.062500 0.437500 -0.500000
v 0.437500 0.437500 -0.500000
v -0.437500 -0.500000 0.437500
v 0.000000 -0.500000 0.437500
v 0.062500 -0.500000 0.437500
v 0.437500 -0.500000 0.437500
v -0.437500 -0.500000 0.250000
v 0.000000 -0.500000 0.250000
v 0.062500 -0.500000 0.250000
v 0.437500 -0.500000 0.250000
v -0.437500 -0.500000 0.187500
v 0.000000 -0.500000 0.187500
v 0.062500 -0.500000 0.187500
v 0.437500 -0.500000 0.187500
v -0.437500 -0.500000 0.000000
v 0.000000 -0.500000 0.000000
v 0.062500 -0.500000 0.000000
v 0.437500 -0.500000 0.000000
v -0.437500 -0.500000 -0.062500
v 0.000000 -0.500000 -0.062500
v 0.062500 -0.500000 -0.062500
v 0.437500 -0.500000 -0.062500
v -0.437500 -0.500000 -0.250000
v 0.000000 -0.500000 -0.250000
v 0.062500 -0.500000 -0.250000
v 0.437500 -0.500000 -0.250000
v -0.437500 -0.500000 -0.312500
v 0.000000 -0.500000 -0.312500
v 0.062500 -0.500000 -0.312500
v 0.437500 -0.500000 -0.312500
v 0.437500 0.500000 0.437500
v 0.062500 0.500000 0.437500
v -0.000000 0.500000 0.437500
v -0.437500 0.500000 0.437500
v 0.437500 0.500000 0.250000
v 0.062500 0.500000 0.250000
v -0.000000 0.500000 0.250000
v -0.437500 0.500000 0.250000
v 0.437500 0.500000 0.187500
v 0.062500 0.500000 0.187500
v -0.000000 0.500000 0.187500
v -0.437500 0.500000 0.187500
v 0.437500 0.500000 -0.000000
v 0.062500 0.500000 -0.000000
v -0.000000 0.500000 -0.000000
v -0.437500 0.500000 -0.000000
v 0.437500 0.500000 -0.062500
v 0.062500 0.500000 -0.062500
v -0.000000 0.500000 -0.062500
v -0.437500 0.500000 -0.062500
v 0.437500 0.500000 -0.250000
v 0.062500 0.500000 -0.250000
v -0.000000 0.500000 -0.250000
v -0.437500 0.500000 -0.250000
v 0.437500 0.500000 -0.312500
v 0.062500 0.500000 -0.312500
v -0.000000 0.500000 -0.312500
v -0.437500 0.500000 -0.312500
v -0.500000 -0.437500 0.500000
v -0.500000 -0.437500 -0.500000
v 0.500000 -0.437500 0.500000
v 0.500000 -0.437500 -0.500000
v 0.500000 -0.437500 0.437500
v 0.500000 -0.437500 0.250000
v 0.500000 -0.437500 0.187500
v 0.500000 -0.437500 0.000000
v 0.500000 -0.437500 -0.062500
v 0.500000 -0.437500 -0.250000
v 0.500000 -0.437500 -0.312500
v -0.500000 -0.437500 -0.312500
v -0.500000 -0.437500 -0.250000
v -0.500000 -0.437500 -0.062500
v -0.500000 -0.437500 0.000000
v -0.500000 -0.437500 0.187500
v -0.500000 -0.437500 0.250000
v -0.500000 -0.437500 0.437500
v -0.437500 -0.437500 -0.500000
v 0.000000 -0.437500 -0.500000
v 0.062500 -0.437500 -0.500000
v 0.437500 -0.437500 -0.500000
v 0.437500 -0.437500 0.500000
v 0.062500 -0.437500 0.500000
v 0.000000 -0.437500 0.500000
v -0.437500 -0.437500 0.500000
vn 1.0000 -0.0000 -0.0000
vn -0.0000 -0.0000 -1.0000
vn -0.0000 -0.0000 1.0000
vn -1.0000 -0.0000 -0.0000
vn -0.0000 -1.0000 -0.0000
vn -0.0000 1.0000 -0.0000
vt 0.043525 0.827899
vt 0.043525 0.827899
vt 0.077361 0.826054
vt 0.077361 0.826054
vt 0.077361 0.826054
s 0
usemtl Atlas
f 99/1/1 105/2/1 106/2/1
f 103/2/1 97/2/1 96/2/1
f 94/2/1 102/2/1 95/2/1
f 98/3/1 104/3/1 105/3/1
f 175/3/2 41/3/2 234/3/2
f 171/3/3 20/3/3 206/3/3
f 103/4/1 109/3/1 110/3/1
f 20/3/4 61/3/4 120/3/4
f 308/3/4 14/3/4 162/3/4
f 296/2/1 71/2/1 295/2/1
f 186/3/3 14/3/3 182/3/3
f 16/2/3 186/2/3 190/2/3
f 194/3/3 16/3/3 190/3/3
f 18/2/3 194/2/3 198/2/3
f 202/3/3 18/3/3 198/3/3
f 20/2/3 202/2/3 206/2/3
f 182/2/3 291/2/3 316/2/3
f 214/3/2 35/3/2 210/3/2
f 37/3/2 214/3/2 218/3/2
f 222/3/2 37/3/2 218/3/2
f 39/2/2 222/2/2 226/2/2
f 230/3/2 39/3/2 226/3/2
f 41/3/2 230/3/2 234/3/2
f 111/2/1 103/2/1 110/2/1
f 105/3/1 111/3/1 112/3/1
f 106/2/1 112/2/1 113/2/1
f 29/3/1 99/5/1 106/3/1
f 100/1/1 41/2/1 107/2/1
f 101/3/1 107/3/1 108/3/1
f 102/2/1 108/2/1 109/2/1
f 28/3/1 106/3/1 113/3/1
f 47/2/1 294/2/1 301/2/1
f 46/3/1 301/3/1 300/3/1
f 45/2/1 300/2/1 299/2/1
f 293/3/1 13/3/1 295/3/1
f 55/2/4 21/2/4 114/2/4
f 56/3/4 114/3/4 115/3/4
f 116/2/4 56/2/4 115/2/4
f 117/3/4 57/3/4 116/3/4
f 44/3/1 299/3/1 298/3/1
f 43/2/1 298/2/1 297/2/1
f 42/3/1 297/3/1 296/3/1
f 59/2/4 117/2/4 118/2/4
f 60/3/4 118/3/4 119/3/4
f 61/2/4 119/2/4 120/2/4
f 103/4/1 95/3/1 102/3/1
f 94/3/1 100/5/1 101/3/1
f 40/2/1 93/2/1 39/2/1
f 31/3/1 99/5/1 30/3/1
f 98/2/1 92/2/1 91/1/1
f 91/5/1 97/3/1 98/3/1
f 96/2/1 90/2/1 89/2/1
f 89/4/1 95/3/1 96/3/1
f 94/2/1 88/2/1 87/1/1
f 87/5/1 93/3/1 94/3/1
f 38/2/1 93/2/1 86/1/1
f 32/5/1 92/3/1 31/3/1
f 84/4/1 92/3/1 85/5/1
f 84/4/1 90/3/1 91/5/1
f 82/2/1 90/2/1 83/2/1
f 82/3/1 88/3/1 89/4/1
f 80/3/1 88/3/1 81/3/1
f 87/5/1 79/3/1 86/5/1
f 37/2/1 86/1/1 79/2/1
f 33/3/1 85/5/1 32/5/1
f 78/2/1 84/2/1 85/1/1
f 77/3/1 83/4/1 84/4/1
f 75/2/1 83/2/1 76/2/1
f 75/3/1 81/3/1 82/3/1
f 73/2/1 81/2/1 74/2/1
f 73/3/1 79/3/1 80/3/1
f 36/2/1 79/2/1 72/2/1
f 33/3/1 71/3/1 78/3/1
f 71/2/1 77/2/1 78/2/1
f 70/3/1 76/3/1 77/3/1
f 68/2/1 76/2/1 69/2/1
f 68/3/1 74/3/1 75/3/1
f 66/2/1 74/2/1 67/2/1
f 73/3/1 65/3/1 72/3/1
f 65/2/1 36/2/1 72/2/1
f 296/3/1 69/3/1 70/3/1
f 156/2/4 292/2/4 302/2/4
f 302/3/4 157/3/4 156/3/4
f 158/2/4 303/2/4 304/2/4
f 305/3/4 158/3/4 304/3/4
f 160/2/4 305/2/4 306/2/4
f 307/3/4 160/3/4 306/3/4
f 15/5/4 162/3/4 14/3/4
f 154/1/4 162/2/4 155/1/4
f 154/5/4 160/3/4 161/3/4
f 159/2/4 153/1/4 152/2/4
f 159/3/4 151/3/4 158/3/4
f 157/2/4 151/2/4 150/2/4
f 150/3/4 156/3/4 157/3/4
f 26/2/4 156/2/4 149/2/4
f 16/3/4 155/5/4 15/5/4
f 154/1/4 148/2/4 147/2/4
f 147/3/4 153/5/4 154/5/4
f 152/2/4 146/2/4 145/1/4
f 152/3/4 144/5/4 151/3/4
f 150/2/4 144/1/4 143/1/4
f 143/5/4 149/3/4 150/3/4
f 26/2/4 142/1/4 25/2/4
f 16/3/4 141/5/4 148/3/4
f 147/2/4 141/1/4 140/1/4
f 140/5/4 146/3/4 147/3/4
f 145/5/4 139/5/4 138/3/4
f 138/3/4 144/5/4 145/5/4
f 143/1/4 137/2/4 136/2/4
f 136/3/4 142/5/4 143/5/4
f 25/3/4 135/3/4 24/4/4
f 18/3/4 141/5/4 17/5/4
f 133/1/4 141/1/4 134/2/4
f 133/5/4 139/5/4 140/5/4
f 138/2/4 132/1/4 131/1/4
f 131/5/4 137/3/4 138/3/4
f 136/2/4 130/1/4 129/1/4
f 129/5/4 135/3/4 136/3/4
f 24/2/4 128/2/4 23/2/4
f 19/5/4 134/3/4 18/3/4
f 133/1/4 127/1/4 126/1/4
f 126/5/4 132/5/4 133/5/4
f 131/1/4 125/1/4 124/2/4
f 124/3/4 130/5/4 131/5/4
f 129/1/4 123/2/4 122/2/4
f 122/3/4 128/3/4 129/5/4
f 23/2/4 121/2/4 22/2/4
f 20/3/4 127/5/4 19/5/4
f 126/1/4 120/2/4 119/2/4
f 119/3/4 125/5/4 126/5/4
f 124/2/4 118/2/4 117/2/4
f 124/3/4 116/3/4 123/3/4
f 122/2/4 116/2/4 115/2/4
f 115/3/4 121/3/4 122/3/4
f 22/2/4 114/2/4 21/2/4
f 28/3/1 64/3/1 5/3/1
f 63/3/1 113/3/1 112/3/1
f 112/3/1 62/3/1 63/3/1
f 9/2/1 111/2/1 110/2/1
f 110/3/1 10/3/1 9/3/1
f 11/3/1 109/3/1 108/3/1
f 108/3/1 12/3/1 11/3/1
f 6/2/1 107/2/1 41/2/1
f 238/3/5 7/3/5 163/3/5
f 242/3/5 13/3/5 238/3/5
f 246/3/5 42/3/5 242/3/5
f 250/2/5 43/2/5 246/2/5
f 254/3/5 44/3/5 250/3/5
f 258/3/5 45/3/5 254/3/5
f 262/3/5 46/3/5 258/3/5
f 170/2/5 47/2/5 262/2/5
f 266/3/6 1/3/6 171/3/6
f 270/3/6 61/3/6 266/3/6
f 274/3/6 60/3/6 270/3/6
f 278/2/6 59/2/6 274/2/6
f 282/3/6 58/3/6 278/3/6
f 286/3/6 57/3/6 282/3/6
f 290/3/6 56/3/6 286/3/6
f 178/2/6 55/2/6 290/2/6
f 6/2/6 287/2/6 12/2/6
f 176/2/6 287/2/6 175/2/6
f 176/3/6 289/3/6 288/3/6
f 178/2/6 289/2/6 177/2/6
f 12/3/6 283/3/6 11/3/6
f 288/3/6 283/3/6 287/3/6
f 288/3/6 285/3/6 284/3/6
f 290/3/6 285/3/6 289/3/6
f 11/2/6 279/2/6 10/2/6
f 284/2/6 279/2/6 283/2/6
f 284/2/6 281/2/6 280/2/6
f 286/2/6 281/2/6 285/2/6
f 10/3/6 275/3/6 9/3/6
f 280/3/6 275/3/6 279/3/6
f 280/3/6 277/3/6 276/3/6
f 282/3/6 277/3/6 281/3/6
f 9/2/6 271/2/6 62/2/6
f 276/2/6 271/2/6 275/2/6
f 276/3/6 273/3/6 272/3/6
f 278/2/6 273/2/6 277/2/6
f 62/3/6 267/3/6 63/3/6
f 272/3/6 267/3/6 271/3/6
f 272/3/6 269/3/6 268/3/6
f 274/3/6 269/3/6 273/3/6
f 63/2/6 263/2/6 64/2/6
f 268/2/6 263/2/6 267/2/6
f 268/2/6 265/2/6 264/2/6
f 270/2/6 265/2/6 269/2/6
f 64/3/6 174/3/6 5/3/6
f 264/3/6 174/3/6 263/3/6
f 264/3/6 172/3/6 173/3/6
f 266/3/6 172/3/6 265/3/6
f 4/2/5 259/2/5 54/2/5
f 168/2/5 259/2/5 167/2/5
f 168/3/5 261/3/5 260/3/5
f 170/2/5 261/2/5 169/2/5
f 54/3/5 255/3/5 53/3/5
f 260/3/5 255/3/5 259/3/5
f 260/3/5 257/3/5 256/3/5
f 262/3/5 257/3/5 261/3/5
f 53/2/5 251/2/5 52/2/5
f 256/2/5 251/2/5 255/2/5
f 256/2/5 253/2/5 252/2/5
f 258/2/5 253/2/5 257/2/5
f 52/3/5 247/3/5 51/3/5
f 252/3/5 247/3/5 251/3/5
f 252/3/5 249/3/5 248/3/5
f 254/3/5 249/3/5 253/3/5
f 51/2/5 243/2/5 50/2/5
f 248/2/5 243/2/5 247/2/5
f 248/3/5 245/3/5 244/3/5
f 250/2/5 245/2/5 249/2/5
f 50/3/5 239/3/5 49/3/5
f 244/3/5 239/3/5 243/3/5
f 244/3/5 241/3/5 240/3/5
f 246/3/5 241/3/5 245/3/5
f 49/2/5 235/2/5 48/2/5
f 240/2/5 235/2/5 239/2/5
f 240/2/5 237/2/5 236/2/5
f 242/2/5 237/2/5 241/2/5
f 48/3/5 166/3/5 3/3/5
f 236/3/5 166/3/5 235/3/5
f 236/3/5 164/3/5 165/3/5
f 238/3/5 164/3/5 237/3/5
f 231/2/2 22/2/2 21/2/2
f 232/2/2 227/2/2 231/2/2
f 233/2/2 228/2/2 232/2/2
f 234/2/2 229/2/2 233/2/2
f 22/3/2 223/3/2 23/3/2
f 228/3/2 223/3/2 227/3/2
f 228/3/2 225/3/2 224/3/2
f 230/3/2 225/3/2 229/3/2
f 223/2/2 24/2/2 23/2/2
f 224/2/2 219/2/2 223/2/2
f 225/3/2 220/3/2 224/3/2
f 226/2/2 221/2/2 225/2/2
f 24/3/2 215/3/2 25/3/2
f 220/3/2 215/3/2 219/3/2
f 220/3/2 217/3/2 216/3/2
f 222/3/2 217/3/2 221/3/2
f 215/2/2 26/2/2 25/2/2
f 216/2/2 211/2/2 215/2/2
f 217/2/2 212/2/2 216/2/2
f 218/2/2 213/2/2 217/2/2
f 26/3/2 207/3/2 27/3/2
f 212/3/2 207/3/2 211/3/2
f 212/3/2 209/3/2 208/3/2
f 214/3/2 209/3/2 213/3/2
f 307/2/4 162/2/4 161/2/4
f 27/2/2 309/2/2 292/2/2
f 208/2/2 309/2/2 207/2/2
f 208/3/2 311/3/2 310/3/2
f 210/2/2 311/2/2 209/2/2
f 203/3/3 29/3/3 28/3/3
f 204/2/3 199/2/3 203/2/3
f 205/2/3 200/2/3 204/2/3
f 206/2/3 201/2/3 205/2/3
f 29/3/3 195/3/3 30/3/3
f 200/4/3 195/3/3 199/3/3
f 200/4/3 197/3/3 196/4/3
f 202/3/3 197/3/3 201/3/3
f 195/2/3 31/2/3 30/2/3
f 196/2/3 191/2/3 195/2/3
f 197/3/3 192/3/3 196/4/3
f 198/2/3 193/2/3 197/2/3
f 31/3/3 187/3/3 32/3/3
f 192/3/3 187/3/3 191/3/3
f 192/3/3 189/5/3 188/3/3
f 194/3/3 189/5/3 193/3/3
f 187/3/3 33/3/3 32/3/3
f 188/2/3 183/2/3 187/2/3
f 189/1/3 184/2/3 188/2/3
f 190/2/3 185/1/3 189/1/3
f 33/3/3 179/3/3 34/3/3
f 184/3/3 179/3/3 183/3/3
f 184/3/3 181/3/3 180/5/3
f 186/3/3 181/3/3 185/5/3
f 34/2/3 313/2/3 293/2/3
f 180/1/3 313/2/3 179/2/3
f 180/5/3 315/3/3 314/5/3
f 182/2/3 315/2/3 181/2/3
f 5/3/3 203/3/3 28/3/3
f 204/3/3 174/3/3 173/3/3
f 173/3/3 205/4/3 204/3/3
f 206/3/3 172/4/3 171/3/3
f 2/3/2 231/3/2 21/3/2
f 232/3/2 178/3/2 177/3/2
f 177/3/2 233/3/2 232/3/2
f 234/3/2 176/3/2 175/3/2
f 315/2/3 166/2/3 165/2/3
f 314/5/3 165/3/3 164/5/3
f 313/2/3 164/1/3 163/2/3
f 293/2/3 163/2/3 7/2/3
f 311/2/2 170/2/2 169/2/2
f 310/3/2 169/3/2 168/3/2
f 309/2/2 168/2/2 167/2/2
f 292/2/2 167/2/2 4/2/2
f 48/3/4 307/3/4 49/3/4
f 49/3/4 306/3/4 50/3/4
f 306/2/4 51/2/4 50/2/4
f 52/3/4 305/3/4 304/3/4
f 304/3/4 53/3/4 52/3/4
f 53/3/4 302/3/4 54/3/4
f 54/2/4 292/2/4 4/2/4
f 69/2/1 298/2/1 68/2/1
f 298/3/1 67/3/1 68/3/1
f 34/3/1 295/3/1 71/3/1
f 299/2/1 66/2/1 67/2/1
f 66/3/1 301/3/1 65/3/1
f 65/2/1 294/2/1 35/2/1
f 210/2/2 294/2/2 312/2/2
f 312/2/2 8/2/2 170/2/2
f 316/2/3 3/2/3 166/2/3
f 13/2/1 296/2/1 295/2/1
f 48/3/4 291/3/4 308/3/4
f 99/1/1 98/2/1 105/2/1
f 103/2/1 104/2/1 97/2/1
f 94/2/1 101/2/1 102/2/1
f 98/3/1 97/3/1 104/3/1
f 175/3/2 6/3/2 41/3/2
f 171/3/3 1/3/3 20/3/3
f 103/4/1 102/3/1 109/3/1
f 20/3/4 1/3/4 61/3/4
f 308/3/4 291/3/4 14/3/4
f 296/2/1 70/2/1 71/2/1
f 186/3/3 15/3/3 14/3/3
f 16/2/3 15/2/3 186/2/3
f 194/3/3 17/3/3 16/3/3
f 18/2/3 17/2/3 194/2/3
f 202/3/3 19/3/3 18/3/3
f 20/2/3 19/2/3 202/2/3
f 182/2/3 14/2/3 291/2/3
f 214/3/2 36/3/2 35/3/2
f 37/3/2 36/3/2 214/3/2
f 222/3/2 38/3/2 37/3/2
f 39/2/2 38/2/2 222/2/2
f 230/3/2 40/3/2 39/3/2
f 41/3/2 40/3/2 230/3/2
f 111/2/1 104/2/1 103/2/1
f 105/3/1 104/3/1 111/3/1
f 106/2/1 105/2/1 112/2/1
f 29/3/1 30/3/1 99/5/1
f 100/1/1 40/2/1 41/2/1
f 101/3/1 100/5/1 107/3/1
f 102/2/1 101/2/1 108/2/1
f 28/3/1 29/3/1 106/3/1
f 47/2/1 8/2/1 294/2/1
f 46/3/1 47/3/1 301/3/1
f 45/2/1 46/2/1 300/2/1
f 293/3/1 7/3/1 13/3/1
f 55/2/4 2/2/4 21/2/4
f 56/3/4 55/3/4 114/3/4
f 116/2/4 57/2/4 56/2/4
f 117/3/4 58/3/4 57/3/4
f 44/3/1 45/3/1 299/3/1
f 43/2/1 44/2/1 298/2/1
f 42/3/1 43/3/1 297/3/1
f 59/2/4 58/2/4 117/2/4
f 60/3/4 59/3/4 118/3/4
f 61/2/4 60/2/4 119/2/4
f 103/4/1 96/3/1 95/3/1
f 94/3/1 93/3/1 100/5/1
f 40/2/1 100/1/1 93/2/1
f 31/3/1 92/3/1 99/5/1
f 98/2/1 99/1/1 92/2/1
f 91/5/1 90/3/1 97/3/1
f 96/2/1 97/2/1 90/2/1
f 89/4/1 88/3/1 95/3/1
f 94/2/1 95/2/1 88/2/1
f 87/5/1 86/5/1 93/3/1
f 38/2/1 39/2/1 93/2/1
f 32/5/1 85/5/1 92/3/1
f 84/4/1 91/5/1 92/3/1
f 84/4/1 83/4/1 90/3/1
f 82/2/1 89/2/1 90/2/1
f 82/3/1 81/3/1 88/3/1
f 80/3/1 87/5/1 88/3/1
f 87/5/1 80/3/1 79/3/1
f 37/2/1 38/2/1 86/1/1
f 33/3/1 78/3/1 85/5/1
f 78/2/1 77/2/1 84/2/1
f 77/3/1 76/3/1 83/4/1
f 75/2/1 82/2/1 83/2/1
f 75/3/1 74/3/1 81/3/1
f 73/2/1 80/2/1 81/2/1
f 73/3/1 72/3/1 79/3/1
f 36/2/1 37/2/1 79/2/1
f 33/3/1 34/3/1 71/3/1
f 71/2/1 70/2/1 77/2/1
f 70/3/1 69/3/1 76/3/1
f 68/2/1 75/2/1 76/2/1
f 68/3/1 67/3/1 74/3/1
f 66/2/1 73/2/1 74/2/1
f 73/3/1 66/3/1 65/3/1
f 65/2/1 35/2/1 36/2/1
f 296/3/1 297/3/1 69/3/1
f 156/2/4 27/2/4 292/2/4
f 302/3/4 303/3/4 157/3/4
f 158/2/4 157/2/4 303/2/4
f 305/3/4 159/3/4 158/3/4
f 160/2/4 159/2/4 305/2/4
f 307/3/4 161/3/4 160/3/4
f 15/5/4 155/5/4 162/3/4
f 154/1/4 161/2/4 162/2/4
f 154/5/4 153/5/4 160/3/4
f 159/2/4 160/2/4 153/1/4
f 159/3/4 152/3/4 151/3/4
f 157/2/4 158/2/4 151/2/4
f 150/3/4 149/3/4 156/3/4
f 26/2/4 27/2/4 156/2/4
f 16/3/4 148/3/4 155/5/4
f 154/1/4 155/1/4 148/2/4
f 147/3/4 146/3/4 153/5/4
f 152/2/4 153/1/4 146/2/4
f 152/3/4 145/5/4 144/5/4
f 150/2/4 151/2/4 144/1/4
f 143/5/4 142/5/4 149/3/4
f 26/2/4 149/2/4 142/1/4
f 16/3/4 17/5/4 141/5/4
f 147/2/4 148/2/4 141/1/4
f 140/5/4 139/5/4 146/3/4
f 145/5/4 146/3/4 139/5/4
f 138/3/4 137/3/4 144/5/4
f 143/1/4 144/1/4 137/2/4
f 136/3/4 135/3/4 142/5/4
f 25/3/4 142/5/4 135/3/4
f 18/3/4 134/3/4 141/5/4
f 133/1/4 140/1/4 141/1/4
f 133/5/4 132/5/4 139/5/4
f 138/2/4 139/1/4 132/1/4
f 131/5/4 130/5/4 137/3/4
f 136/2/4 137/2/4 130/1/4
f 129/5/4 128/3/4 135/3/4
f 24/2/4 135/2/4 128/2/4
f 19/5/4 127/5/4 134/3/4
f 133/1/4 134/2/4 127/1/4
f 126/5/4 125/5/4 132/5/4
f 131/1/4 132/1/4 125/1/4
f 124/3/4 123/3/4 130/5/4
f 129/1/4 130/1/4 123/2/4
f 122/3/4 121/3/4 128/3/4
f 23/2/4 128/2/4 121/2/4
f 20/3/4 120/3/4 127/5/4
f 126/1/4 127/1/4 120/2/4
f 119/3/4 118/3/4 125/5/4
f 124/2/4 125/1/4 118/2/4
f 124/3/4 117/3/4 116/3/4
f 122/2/4 123/2/4 116/2/4
f 115/3/4 114/3/4 121/3/4
f 22/2/4 121/2/4 114/2/4
f 28/3/1 113/3/1 64/3/1
f 63/3/1 64/3/1 113/3/1
f 112/3/1 111/3/1 62/3/1
f 9/2/1 62/2/1 111/2/1
f 110/3/1 109/3/1 10/3/1
f 11/3/1 10/3/1 109/3/1
f 108/3/1 107/3/1 12/3/1
f 6/2/1 12/2/1 107/2/1
f 238/3/5 13/3/5 7/3/5
f 242/3/5 42/3/5 13/3/5
f 246/3/5 43/3/5 42/3/5
f 250/2/5 44/2/5 43/2/5
f 254/3/5 45/3/5 44/3/5
f 258/3/5 46/3/5 45/3/5
f 262/3/5 47/3/5 46/3/5
f 170/2/5 8/2/5 47/2/5
f 266/3/6 61/3/6 1/3/6
f 270/3/6 60/3/6 61/3/6
f 274/3/6 59/3/6 60/3/6
f 278/2/6 58/2/6 59/2/6
f 282/3/6 57/3/6 58/3/6
f 286/3/6 56/3/6 57/3/6
f 290/3/6 55/3/6 56/3/6
f 178/2/6 2/2/6 55/2/6
f 6/2/6 175/2/6 287/2/6
f 176/2/6 288/2/6 287/2/6
f 176/3/6 177/3/6 289/3/6
f 178/2/6 290/2/6 289/2/6
f 12/3/6 287/3/6 283/3/6
f 288/3/6 284/3/6 283/3/6
f 288/3/6 289/3/6 285/3/6
f 290/3/6 286/3/6 285/3/6
f 11/2/6 283/2/6 279/2/6
f 284/2/6 280/2/6 279/2/6
f 284/2/6 285/2/6 281/2/6
f 286/2/6 282/2/6 281/2/6
f 10/3/6 279/3/6 275/3/6
f 280/3/6 276/3/6 275/3/6
f 280/3/6 281/3/6 277/3/6
f 282/3/6 278/3/6 277/3/6
f 9/2/6 275/2/6 271/2/6
f 276/2/6 272/2/6 271/2/6
f 276/3/6 277/3/6 273/3/6
f 278/2/6 274/2/6 273/2/6
f 62/3/6 271/3/6 267/3/6
f 272/3/6 268/3/6 267/3/6
f 272/3/6 273/3/6 269/3/6
f 274/3/6 270/3/6 269/3/6
f 63/2/6 267/2/6 263/2/6
f 268/2/6 264/2/6 263/2/6
f 268/2/6 269/2/6 265/2/6
f 270/2/6 266/2/6 265/2/6
f 64/3/6 263/3/6 174/3/6
f 264/3/6 173/3/6 174/3/6
f 264/3/6 265/3/6 172/3/6
f 266/3/6 171/3/6 172/3/6
f 4/2/5 167/2/5 259/2/5
f 168/2/5 260/2/5 259/2/5
f 168/3/5 169/3/5 261/3/5
f 170/2/5 262/2/5 261/2/5
f 54/3/5 259/3/5 255/3/5
f 260/3/5 256/3/5 255/3/5
f 260/3/5 261/3/5 257/3/5
f 262/3/5 258/3/5 257/3/5
f 53/2/5 255/2/5 251/2/5
f 256/2/5 252/2/5 251/2/5
f 256/2/5 257/2/5 253/2/5
f 258/2/5 254/2/5 253/2/5
f 52/3/5 251/3/5 247/3/5
f 252/3/5 248/3/5 247/3/5
f 252/3/5 253/3/5 249/3/5
f 254/3/5 250/3/5 249/3/5
f 51/2/5 247/2/5 243/2/5
f 248/2/5 244/2/5 243/2/5
f 248/3/5 249/3/5 245/3/5
f 250/2/5 246/2/5 245/2/5
f 50/3/5 243/3/5 239/3/5
f 244/3/5 240/3/5 239/3/5
f 244/3/5 245/3/5 241/3/5
f 246/3/5 242/3/5 241/3/5
f 49/2/5 239/2/5 235/2/5
f 240/2/5 236/2/5 235/2/5
f 240/2/5 241/2/5 237/2/5
f 242/2/5 238/2/5 237/2/5
f 48/3/5 235/3/5 166/3/5
f 236/3/5 165/3/5 166/3/5
f 236/3/5 237/3/5 164/3/5
f 238/3/5 163/3/5 164/3/5
f 231/2/2 227/2/2 22/2/2
f 232/2/2 228/2/2 227/2/2
f 233/2/2 229/2/2 228/2/2
f 234/2/2 230/2/2 229/2/2
f 22/3/2 227/3/2 223/3/2
f 228/3/2 224/3/2 223/3/2
f 228/3/2 229/3/2 225/3/2
f 230/3/2 226/3/2 225/3/2
f 223/2/2 219/2/2 24/2/2
f 224/2/2 220/2/2 219/2/2
f 225/3/2 221/3/2 220/3/2
f 226/2/2 222/2/2 221/2/2
f 24/3/2 219/3/2 215/3/2
f 220/3/2 216/3/2 215/3/2
f 220/3/2 221/3/2 217/3/2
f 222/3/2 218/3/2 217/3/2
f 215/2/2 211/2/2 26/2/2
f 216/2/2 212/2/2 211/2/2
f 217/2/2 213/2/2 212/2/2
f 218/2/2 214/2/2 213/2/2
f 26/3/2 211/3/2 207/3/2
f 212/3/2 208/3/2 207/3/2
f 212/3/2 213/3/2 209/3/2
f 214/3/2 210/3/2 209/3/2
f 307/2/4 308/2/4 162/2/4
f 27/2/2 207/2/2 309/2/2
f 208/2/2 310/2/2 309/2/2
f 208/3/2 209/3/2 311/3/2
f 210/2/2 312/2/2 311/2/2
f 203/3/3 199/3/3 29/3/3
f 204/2/3 200/2/3 199/2/3
f 205/2/3 201/2/3 200/2/3
f 206/2/3 202/2/3 201/2/3
f 29/3/3 199/3/3 195/3/3
f 200/4/3 196/4/3 195/3/3
f 200/4/3 201/3/3 197/3/3
f 202/3/3 198/3/3 197/3/3
f 195/2/3 191/2/3 31/2/3
f 196/2/3 192/2/3 191/2/3
f 197/3/3 193/3/3 192/3/3
f 198/2/3 194/2/3 193/2/3
f 31/3/3 191/3/3 187/3/3
f 192/3/3 188/3/3 187/3/3
f 192/3/3 193/3/3 189/5/3
f 194/3/3 190/3/3 189/5/3
f 187/3/3 183/3/3 33/3/3
f 188/2/3 184/2/3 183/2/3
f 189/1/3 185/1/3 184/2/3
f 190/2/3 186/2/3 185/1/3
f 33/3/3 183/3/3 179/3/3
f 184/3/3 180/5/3 179/3/3
f 184/3/3 185/5/3 181/3/3
f 186/3/3 182/3/3 181/3/3
f 34/2/3 179/2/3 313/2/3
f 180/1/3 314/1/3 313/2/3
f 180/5/3 181/3/3 315/3/3
f 182/2/3 316/2/3 315/2/3
f 5/3/3 174/3/3 203/3/3
f 204/3/3 203/3/3 174/3/3
f 173/3/3 172/4/3 205/4/3
f 206/3/3 205/4/3 172/4/3
f 2/3/2 178/3/2 231/3/2
f 232/3/2 231/3/2 178/3/2
f 177/3/2 176/3/2 233/3/2
f 234/3/2 233/3/2 176/3/2
f 315/2/3 316/2/3 166/2/3
f 314/5/3 315/3/3 165/3/3
f 313/2/3 314/1/3 164/1/3
f 293/2/3 313/2/3 163/2/3
f 311/2/2 312/2/2 170/2/2
f 310/3/2 311/3/2 169/3/2
f 309/2/2 310/2/2 168/2/2
f 292/2/2 309/2/2 167/2/2
f 48/3/4 308/3/4 307/3/4
f 49/3/4 307/3/4 306/3/4
f 306/2/4 305/2/4 51/2/4
f 52/3/4 51/3/4 305/3/4
f 304/3/4 303/3/4 53/3/4
f 53/3/4 303/3/4 302/3/4
f 54/2/4 302/2/4 292/2/4
f 69/2/1 297/2/1 298/2/1
f 298/3/1 299/3/1 67/3/1
f 34/3/1 293/3/1 295/3/1
f 299/2/1 300/2/1 66/2/1
f 66/3/1 300/3/1 301/3/1
f 65/2/1 301/2/1 294/2/1
f 210/2/2 35/2/2 294/2/2
f 312/2/2 294/2/2 8/2/2
f 316/2/3 291/2/3 3/2/3
f 13/2/1 42/2/1 296/2/1
f 48/3/4 3/3/4 291/3/4
